<?xml version="1.0" encoding="UTF-8"?>
<svg version="1.1" xmlns="http://www.w3.org/2000/svg" width="2409" height="2409">
<path d="M0 0 C0.8544873 0.43094971 1.70897461 0.86189941 2.58935547 1.3059082 C3.50604004 1.79921631 4.42272461 2.29252441 5.3671875 2.80078125 C6.92469727 3.63802734 6.92469727 3.63802734 8.51367188 4.4921875 C9.62291016 5.09289063 10.73214844 5.69359375 11.875 6.3125 C13.61233398 7.25029297 13.61233398 7.25029297 15.38476562 8.20703125 C23.75335146 12.73510915 32.04554393 17.39108316 40.31201172 22.1027832 C48.5732733 26.7964562 56.93472492 31.29117898 65.31298828 35.77172852 C72.38948923 39.56635111 79.40098176 43.45800992 86.375 47.4375 C94.94817761 52.32691966 103.60359004 57.0459213 112.3125 61.6875 C122.09760374 66.90361364 131.83722191 72.18737426 141.51123047 77.60693359 C156.47975982 85.98543354 171.48459837 94.29217291 186.5793457 102.44116211 C195.42763284 107.22101756 204.21892067 112.09811234 213 117 C227.1520971 124.89441394 241.32351731 132.74571985 255.58374023 140.44335938 C262.01610417 143.91782952 268.42271429 147.43406181 274.80761719 150.99487305 C281.79762233 154.8926712 288.80407089 158.76046391 295.8125 162.625 C297.06339648 163.31485768 298.31429165 164.00471772 299.56518555 164.69458008 C302.10931979 166.09759363 304.65352147 167.50048483 307.19775391 168.90332031 C312.09913431 171.60594332 316.9997872 174.30988447 321.90039062 177.01391602 C324.30392663 178.34012432 326.70757876 179.6661218 329.11132812 180.99194336 C334.59736162 184.01799438 340.08281015 187.04508518 345.56565857 190.0769043 C358.575617 197.27082807 371.60329528 204.4277874 384.68359375 211.4934082 C393.49603114 216.25766923 402.25292481 221.11709457 411 226 C425.1520971 233.89441394 439.32351731 241.74571985 453.58374023 249.44335938 C460.01610417 252.91782952 466.42271429 256.43406181 472.80761719 259.99487305 C479.79762233 263.8926712 486.80407089 267.76046391 493.8125 271.625 C495.06339648 272.31485768 496.31429165 273.00471772 497.56518555 273.69458008 C500.10931979 275.09759363 502.65352147 276.50048483 505.19775391 277.90332031 C510.09913431 280.60594332 514.9997872 283.30988447 519.90039062 286.01391602 C522.30392663 287.34012432 524.70757876 288.6661218 527.11132812 289.99194336 C532.59736162 293.01799438 538.08281015 296.04508518 543.56565857 299.0769043 C556.575617 306.27082807 569.60329528 313.4277874 582.68359375 320.4934082 C591.49603114 325.25766923 600.25292481 330.11709457 609 335 C623.15067282 342.89361944 637.32090749 350.74365937 651.5793457 358.44116211 C660.42763284 363.22101756 669.21892067 368.09811234 678 373 C692.1520971 380.89441394 706.32351731 388.74571985 720.58374023 396.44335938 C727.01610417 399.91782952 733.42271429 403.43406181 739.80761719 406.99487305 C746.79762233 410.8926712 753.80407089 414.76046391 760.8125 418.625 C762.06339648 419.31485768 763.31429165 420.00471772 764.56518555 420.69458008 C767.10931979 422.09759363 769.65352147 423.50048483 772.19775391 424.90332031 C777.09913431 427.60594332 781.9997872 430.30988447 786.90039062 433.01391602 C789.30392663 434.34012432 791.70757876 435.6661218 794.11132812 436.99194336 C799.59738757 440.0180087 805.08286499 443.04510851 810.56573486 446.07695007 C813.64764025 447.78109964 816.72997186 449.48447717 819.8125 451.1875 C820.41668762 451.52133698 821.02087524 451.85517395 821.64337158 452.1991272 C829.86366702 456.73932491 838.10844995 461.23196275 846.375 465.6875 C854.09412818 469.84841814 861.75436253 474.09892436 869.375 478.4375 C878.73028083 483.76354619 888.17779904 488.90020774 897.66625977 493.98461914 C905.1801264 498.0126887 912.65042145 502.10910138 920.09375 506.265625 C926.32052886 509.74189259 932.56743465 513.18173939 938.8125 516.625 C940.06356369 517.31493098 941.3146216 518.00487245 942.56567383 518.69482422 C945.10964261 520.09776129 947.65367981 521.50057421 950.19775391 522.90332031 C955.09913431 525.60594332 959.9997872 528.30988447 964.90039062 531.01391602 C967.30392663 532.34012432 969.70757876 533.6661218 972.11132812 534.99194336 C977.59736162 538.01799438 983.08281015 541.04508518 988.56565857 544.0769043 C1000.58207717 550.72144509 1012.60632304 557.34856551 1024.6875 563.875 C1041.59981874 573.01357655 1058.30405205 582.45945832 1075 592 C1075 984.7 1075 1377.4 1075 1782 C1063.12 1788.435 1063.12 1788.435 1051 1795 C1045.84660488 1797.85081432 1040.69549764 1800.70411979 1035.55322266 1803.57470703 C1020.55255861 1811.9485717 1005.534172 1820.28274089 990.41625977 1828.44335938 C983.98389583 1831.91782952 977.57728571 1835.43406181 971.19238281 1838.99487305 C964.20237767 1842.8926712 957.19592911 1846.76046391 950.1875 1850.625 C948.93660352 1851.31485768 947.68570835 1852.00471772 946.43481445 1852.69458008 C943.89068021 1854.09759363 941.34647853 1855.50048483 938.80224609 1856.90332031 C933.90086569 1859.60594332 929.0002128 1862.30988447 924.09960938 1865.01391602 C921.69607337 1866.34012432 919.29242124 1867.6661218 916.88867188 1868.99194336 C911.40263838 1872.01799438 905.91718985 1875.04508518 900.43434143 1878.0769043 C887.424383 1885.27082807 874.39670472 1892.4277874 861.31640625 1899.4934082 C853.36148197 1903.7940726 845.44917639 1908.16692563 837.55322266 1912.57470703 C822.55255861 1920.9485717 807.534172 1929.28274089 792.41625977 1937.44335938 C785.98389583 1940.91782952 779.57728571 1944.43406181 773.19238281 1947.99487305 C766.20237767 1951.8926712 759.19592911 1955.76046391 752.1875 1959.625 C750.93660352 1960.31485768 749.68570835 1961.00471772 748.43481445 1961.69458008 C745.89068021 1963.09759363 743.34647853 1964.50048483 740.80224609 1965.90332031 C735.90086569 1968.60594332 731.0002128 1971.30988447 726.09960938 1974.01391602 C723.69607336 1975.34012432 721.29242124 1976.6661218 718.88867188 1977.99194336 C713.40261243 1981.0180087 707.91713501 1984.04510851 702.43426514 1987.07695007 C699.35235975 1988.78109964 696.27002814 1990.48447717 693.1875 1992.1875 C692.58331238 1992.52133698 691.97912476 1992.85517395 691.35662842 1993.1991272 C683.13633298 1997.73932491 674.89155005 2002.23196275 666.625 2006.6875 C658.90587182 2010.84841814 651.24563747 2015.09892436 643.625 2019.4375 C634.26971917 2024.76354619 624.82220096 2029.90020774 615.33374023 2034.98461914 C607.8198736 2039.0126887 600.34957855 2043.10910138 592.90625 2047.265625 C586.67947114 2050.74189259 580.43256535 2054.18173939 574.1875 2057.625 C572.93643631 2058.31493098 571.6853784 2059.00487245 570.43432617 2059.69482422 C567.89035739 2061.09776129 565.34632019 2062.50057421 562.80224609 2063.90332031 C557.90086569 2066.60594332 553.0002128 2069.30988447 548.09960938 2072.01391602 C545.69607337 2073.34012432 543.29242124 2074.6661218 540.88867188 2075.99194336 C535.40261243 2079.0180087 529.91713501 2082.04510851 524.43426514 2085.07695007 C521.35235975 2086.78109964 518.27002814 2088.48447717 515.1875 2090.1875 C514.58331238 2090.52133698 513.97912476 2090.85517395 513.35662842 2091.1991272 C505.13633298 2095.73932491 496.89155005 2100.23196275 488.625 2104.6875 C480.90587182 2108.84841814 473.24563747 2113.09892436 465.625 2117.4375 C456.26971917 2122.76354619 446.82220096 2127.90020774 437.33374023 2132.98461914 C429.8198736 2137.0126887 422.34957855 2141.10910138 414.90625 2145.265625 C408.67947114 2148.74189259 402.43256535 2152.18173939 396.1875 2155.625 C394.93643631 2156.31493098 393.6853784 2157.00487245 392.43432617 2157.69482422 C389.89035739 2159.09776129 387.34632019 2160.50057421 384.80224609 2161.90332031 C379.90086569 2164.60594332 375.0002128 2167.30988447 370.09960938 2170.01391602 C367.69607337 2171.34012432 365.29242124 2172.6661218 362.88867188 2173.99194336 C357.40261243 2177.0180087 351.91713501 2180.04510851 346.43426514 2183.07695007 C343.35235975 2184.78109964 340.27002814 2186.48447717 337.1875 2188.1875 C336.58331238 2188.52133698 335.97912476 2188.85517395 335.35662842 2189.1991272 C327.13633298 2193.73932491 318.89155005 2198.23196275 310.625 2202.6875 C302.90587182 2206.84841814 295.24563747 2211.09892436 287.625 2215.4375 C278.26971917 2220.76354619 268.82220096 2225.90020774 259.33374023 2230.98461914 C251.8198736 2235.0126887 244.34957855 2239.10910138 236.90625 2243.265625 C230.67947114 2246.74189259 224.43256535 2250.18173939 218.1875 2253.625 C216.93643631 2254.31493098 215.6853784 2255.00487245 214.43432617 2255.69482422 C211.89035739 2257.09776129 209.34632019 2258.50057421 206.80224609 2259.90332031 C201.90086569 2262.60594332 197.0002128 2265.30988447 192.09960938 2268.01391602 C189.69607337 2269.34012432 187.29242124 2270.6661218 184.88867188 2271.99194336 C179.40263838 2275.01799438 173.91718985 2278.04508518 168.43434143 2281.0769043 C155.424383 2288.27082807 142.39670472 2295.4277874 129.31640625 2302.4934082 C121.36148197 2306.7940726 113.44917639 2311.16692563 105.55322266 2315.57470703 C90.55255861 2323.9485717 75.534172 2332.28274089 60.41625977 2340.44335938 C54.00005648 2343.90910027 47.60881965 2347.41524882 41.24072266 2350.96850586 C36.39688231 2353.67056744 31.54493963 2356.3576229 26.6875 2359.03515625 C26.0412114 2359.39142593 25.39492279 2359.74769562 24.72904968 2360.11476135 C22.1167192 2361.55457747 19.50425189 2362.99414364 16.89126587 2364.43276978 C15.65340952 2365.11431103 14.41577832 2365.79626141 13.1783905 2366.47865295 C11.44830769 2367.43132543 9.7156479 2368.37931337 7.98291016 2369.32714844 C5.59983181 2370.66360717 3.31152319 2372.06885063 1.01171875 2373.5390625 C-2.67539784 2375.32762489 -4.07412717 2374.93762255 -8 2374 C-10.51928711 2372.89941406 -10.51928711 2372.89941406 -13.02734375 2371.515625 C-13.97206543 2370.99943604 -14.91678711 2370.48324707 -15.89013672 2369.95141602 C-17.39858154 2369.10921509 -17.39858154 2369.10921509 -18.9375 2368.25 C-19.99727051 2367.66726318 -21.05704102 2367.08452637 -22.14892578 2366.48413086 C-30.20343691 2362.04118942 -38.20530254 2357.50480404 -46.19970703 2352.95483398 C-54.61904631 2348.1772784 -63.13400707 2343.5874062 -71.66625977 2339.01538086 C-79.1801264 2334.9873113 -86.65042145 2330.89089862 -94.09375 2326.734375 C-100.32052886 2323.25810741 -106.56743465 2319.81826061 -112.8125 2316.375 C-114.06356369 2315.68506902 -115.3146216 2314.99512755 -116.56567383 2314.30517578 C-119.10964261 2312.90223871 -121.65367981 2311.49942579 -124.19775391 2310.09667969 C-129.09913431 2307.39405668 -133.9997872 2304.69011553 -138.90039062 2301.98608398 C-141.30392664 2300.65987568 -143.70757876 2299.3338782 -146.11132812 2298.00805664 C-151.59736162 2294.98200562 -157.08281015 2291.95491482 -162.56565857 2288.9230957 C-175.575617 2281.72917193 -188.60329528 2274.5722126 -201.68359375 2267.5065918 C-210.49603114 2262.74233077 -219.25292481 2257.88290543 -228 2253 C-242.1520971 2245.10558606 -256.32351731 2237.25428015 -270.58374023 2229.55664062 C-277.01610417 2226.08217048 -283.42271429 2222.56593819 -289.80761719 2219.00512695 C-296.79762233 2215.1073288 -303.80407089 2211.23953609 -310.8125 2207.375 C-312.06339648 2206.68514232 -313.31429165 2205.99528228 -314.56518555 2205.30541992 C-317.10931979 2203.90240637 -319.65352147 2202.49951517 -322.19775391 2201.09667969 C-327.09913431 2198.39405668 -331.9997872 2195.69011553 -336.90039062 2192.98608398 C-339.30392663 2191.65987568 -341.70757876 2190.3338782 -344.11132812 2189.00805664 C-349.59738757 2185.9819913 -355.08286499 2182.95489149 -360.56573486 2179.92304993 C-363.64764025 2178.21890036 -366.72997186 2176.51552283 -369.8125 2174.8125 C-370.71878143 2174.31174454 -370.71878143 2174.31174454 -371.64337158 2173.8008728 C-379.86366702 2169.26067509 -388.10844995 2164.76803725 -396.375 2160.3125 C-404.09412818 2156.15158186 -411.75436253 2151.90107564 -419.375 2147.5625 C-428.7288604 2142.23726247 -438.17503388 2137.10156268 -447.66186523 2132.01757812 C-455.9787517 2127.55870795 -464.24279942 2123.01494029 -472.47900391 2118.40917969 C-487.46437683 2110.03269581 -502.47650169 2101.71149747 -517.58374023 2093.55664062 C-524.01610417 2090.08217048 -530.42271429 2086.56593819 -536.80761719 2083.00512695 C-543.79762233 2079.1073288 -550.80407089 2075.23953609 -557.8125 2071.375 C-559.06339648 2070.68514232 -560.31429165 2069.99528228 -561.56518555 2069.30541992 C-564.10931979 2067.90240637 -566.65352147 2066.49951517 -569.19775391 2065.09667969 C-574.09913431 2062.39405668 -578.9997872 2059.69011553 -583.90039062 2056.98608398 C-586.30392663 2055.65987568 -588.70757876 2054.3338782 -591.11132812 2053.00805664 C-596.59738757 2049.9819913 -602.08286499 2046.95489149 -607.56573486 2043.92304993 C-610.64764025 2042.21890036 -613.72997186 2040.51552283 -616.8125 2038.8125 C-617.71878143 2038.31174454 -617.71878143 2038.31174454 -618.64337158 2037.8008728 C-626.86366702 2033.26067509 -635.10844995 2028.76803725 -643.375 2024.3125 C-651.09412818 2020.15158186 -658.75436253 2015.90107564 -666.375 2011.5625 C-675.73028083 2006.23645381 -685.17779904 2001.09979226 -694.66625977 1996.01538086 C-702.1801264 1991.9873113 -709.65042145 1987.89089862 -717.09375 1983.734375 C-723.32052886 1980.25810741 -729.56743465 1976.81826061 -735.8125 1973.375 C-737.06356369 1972.68506902 -738.3146216 1971.99512755 -739.56567383 1971.30517578 C-742.10964261 1969.90223871 -744.65367981 1968.49942579 -747.19775391 1967.09667969 C-752.09913431 1964.39405668 -756.9997872 1961.69011553 -761.90039062 1958.98608398 C-764.30392663 1957.65987568 -766.70757876 1956.3338782 -769.11132812 1955.00805664 C-774.59738757 1951.9819913 -780.08286499 1948.95489149 -785.56573486 1945.92304993 C-788.64764025 1944.21890036 -791.72997186 1942.51552283 -794.8125 1940.8125 C-795.71878143 1940.31174454 -795.71878143 1940.31174454 -796.64337158 1939.8008728 C-804.86366702 1935.26067509 -813.10844995 1930.76803725 -821.375 1926.3125 C-829.09412818 1922.15158186 -836.75436253 1917.90107564 -844.375 1913.5625 C-853.73028083 1908.23645381 -863.17779904 1903.09979226 -872.66625977 1898.01538086 C-880.1801264 1893.9873113 -887.65042145 1889.89089862 -895.09375 1885.734375 C-901.32052886 1882.25810741 -907.56743465 1878.81826061 -913.8125 1875.375 C-915.06356369 1874.68506902 -916.3146216 1873.99512755 -917.56567383 1873.30517578 C-920.10964261 1871.90223871 -922.65367981 1870.49942579 -925.19775391 1869.09667969 C-930.09913431 1866.39405668 -934.9997872 1863.69011553 -939.90039062 1860.98608398 C-942.30392663 1859.65987568 -944.70757876 1858.3338782 -947.11132812 1857.00805664 C-952.59736162 1853.98200562 -958.08281015 1850.95491482 -963.56565857 1847.9230957 C-976.575617 1840.72917193 -989.60329528 1833.5722126 -1002.68359375 1826.5065918 C-1011.49603114 1821.74233077 -1020.25292481 1816.88290543 -1029 1812 C-1033.37373123 1809.56021708 -1037.7487906 1807.12283512 -1042.125 1804.6875 C-1043.83296753 1803.73701782 -1043.83296753 1803.73701782 -1045.57543945 1802.76733398 C-1054.5389641 1797.7892829 -1063.54228403 1792.88775001 -1072.57470703 1788.03588867 C-1073.50911621 1787.5329126 -1074.44352539 1787.02993652 -1075.40625 1786.51171875 C-1076.22416016 1786.07303467 -1077.04207031 1785.63435059 -1077.88476562 1785.18237305 C-1079.63762933 1784.20255784 -1081.32913839 1783.11390774 -1083 1782 C-1083.29893193 1779.298638 -1083.39870835 1776.82565961 -1083.37259549 1774.12128818 C-1083.37642975 1773.29236349 -1083.38026401 1772.46343881 -1083.38421445 1771.60939519 C-1083.39349667 1768.79583828 -1083.38115816 1765.98277438 -1083.36914349 1763.16923332 C-1083.37135999 1761.13744125 -1083.37489316 1759.10565025 -1083.37963298 1757.07386249 C-1083.3888975 1751.44178782 -1083.37926753 1745.8098739 -1083.36679858 1740.17781112 C-1083.35654468 1734.0691272 -1083.36359902 1727.9604605 -1083.36853105 1721.85177338 C-1083.37476952 1711.12944353 -1083.36988939 1700.40716913 -1083.35761642 1689.68484879 C-1083.34450021 1678.17524943 -1083.33789657 1666.66567395 -1083.33932304 1655.15606689 C-1083.33940912 1654.43017991 -1083.3394952 1653.70429293 -1083.33958388 1652.95640937 C-1083.34005298 1649.2553677 -1083.34062883 1645.55432606 -1083.34124239 1641.85328442 C-1083.34546934 1615.03731091 -1083.33515696 1588.22135867 -1083.31719017 1561.40539169 C-1083.29943471 1534.84147919 -1083.2878673 1508.27757578 -1083.28463173 1481.71365738 C-1083.28452849 1480.889286 -1083.28442526 1480.06491463 -1083.28431889 1479.2155623 C-1083.28337932 1471.68641804 -1083.28251625 1464.15727377 -1083.28174497 1456.62812948 C-1083.27982656 1437.90986777 -1083.27694845 1419.19160628 -1083.27341938 1400.4733448 C-1083.27325943 1399.62087011 -1083.27309948 1398.76839542 -1083.27293468 1397.89008817 C-1083.26506637 1356.40214519 -1083.24614216 1314.91420823 -1083.22631836 1273.42626953 C-1083.2194435 1259.02547205 -1083.21261747 1244.62467455 -1083.20599365 1230.22387695 C-1083.2055828 1229.33076206 -1083.20517196 1228.43764717 -1083.20474866 1227.5174682 C-1083.18572336 1186.01413086 -1083.17454189 1144.51079249 -1083.16538927 1103.00745194 C-1083.16479507 1100.31367771 -1083.1641975 1097.61990347 -1083.16359923 1094.92612924 C-1083.15963995 1077.0746426 -1083.15581599 1059.22315593 -1083.15208265 1041.37166923 C-1083.14465276 1005.85034955 -1083.1364277 970.32903006 -1083.12765651 934.80771067 C-1083.12723879 933.11601737 -1083.12682163 931.42432406 -1083.12640502 929.73263076 C-1083.10764104 853.55726519 -1083.07962574 777.38190403 -1083.04760742 701.20654297 C-1083.04730762 700.49312827 -1083.04700781 699.77971357 -1083.04669892 699.04468024 C-1083.03169693 663.36311991 -1083.01616731 627.68155982 -1083 592 C-1080.47696323 590.57922976 -1077.95374306 589.15878689 -1075.43041992 587.73852539 C-1074.72499809 587.34124489 -1074.01957626 586.94396439 -1073.29277802 586.53464508 C-1066.65318302 582.79811836 -1059.98693193 579.11146452 -1053.3125 575.4375 C-1052.06376135 574.74942289 -1050.81506454 574.06126982 -1049.56640625 573.37304688 C-1046.98925435 571.95267289 -1044.41192842 570.53261548 -1041.83447266 569.11279297 C-1036.32086347 566.07522291 -1030.80949882 563.03358617 -1025.29803467 559.99212646 C-1023.49517567 558.99733801 -1021.69218813 558.00278292 -1019.88916016 557.00830078 C-1014.4029533 553.98218756 -1008.91734898 550.95500282 -1003.43434143 547.9230957 C-990.42295337 540.72838141 -977.39407171 533.57019715 -964.31201172 526.50439453 C-957.91488755 523.0462281 -951.54299322 519.54675733 -945.19189453 516.00488281 C-938.20208593 512.10710548 -931.1957698 508.23944824 -924.1875 504.375 C-922.93660352 503.68514232 -921.68570835 502.99528228 -920.43481445 502.30541992 C-917.89068021 500.90240637 -915.34647853 499.49951517 -912.80224609 498.09667969 C-907.90086569 495.39405668 -903.0002128 492.69011553 -898.09960938 489.98608398 C-895.69607337 488.65987568 -893.29242124 487.3338782 -890.88867188 486.00805664 C-885.40261243 482.9819913 -879.91713501 479.95489149 -874.43426514 476.92304993 C-871.35235975 475.21890036 -868.27002814 473.51552283 -865.1875 471.8125 C-864.58331238 471.47866302 -863.97912476 471.14482605 -863.35662842 470.8008728 C-855.13633298 466.26067509 -846.89155005 461.76803725 -838.625 457.3125 C-830.90587182 453.15158186 -823.24563747 448.90107564 -815.625 444.5625 C-806.26971917 439.23645381 -796.82220096 434.09979226 -787.33374023 429.01538086 C-779.8198736 424.9873113 -772.34957855 420.89089862 -764.90625 416.734375 C-758.67947114 413.25810741 -752.43256535 409.81826061 -746.1875 406.375 C-744.93643631 405.68506902 -743.6853784 404.99512755 -742.43432617 404.30517578 C-739.89035739 402.90223871 -737.34632019 401.49942579 -734.80224609 400.09667969 C-729.90086569 397.39405668 -725.0002128 394.69011553 -720.09960938 391.98608398 C-717.69607337 390.65987568 -715.29242124 389.3338782 -712.88867188 388.00805664 C-707.40261243 384.9819913 -701.91713501 381.95489149 -696.43426514 378.92304993 C-693.35235975 377.21890036 -690.27002814 375.51552283 -687.1875 373.8125 C-686.58331238 373.47866302 -685.97912476 373.14482605 -685.35662842 372.8008728 C-677.13633298 368.26067509 -668.89155005 363.76803725 -660.625 359.3125 C-652.90587182 355.15158186 -645.24563747 350.90107564 -637.625 346.5625 C-628.26971917 341.23645381 -618.82220096 336.09979226 -609.33374023 331.01538086 C-601.8198736 326.9873113 -594.34957855 322.89089862 -586.90625 318.734375 C-580.67947114 315.25810741 -574.43256535 311.81826061 -568.1875 308.375 C-566.93643631 307.68506902 -565.6853784 306.99512755 -564.43432617 306.30517578 C-561.89035739 304.90223871 -559.34632019 303.49942579 -556.80224609 302.09667969 C-551.90086569 299.39405668 -547.0002128 296.69011553 -542.09960938 293.98608398 C-539.69607337 292.65987568 -537.29242124 291.3338782 -534.88867188 290.00805664 C-529.40261243 286.9819913 -523.91713501 283.95489149 -518.43426514 280.92304993 C-515.35235975 279.21890036 -512.27002814 277.51552283 -509.1875 275.8125 C-508.58331238 275.47866302 -507.97912476 275.14482605 -507.35662842 274.8008728 C-499.13633298 270.26067509 -490.89155005 265.76803725 -482.625 261.3125 C-474.90587182 257.15158186 -467.24563747 252.90107564 -459.625 248.5625 C-450.26971917 243.23645381 -440.82220096 238.09979226 -431.33374023 233.01538086 C-423.8198736 228.9873113 -416.34957855 224.89089862 -408.90625 220.734375 C-402.67947114 217.25810741 -396.43256535 213.81826061 -390.1875 210.375 C-388.93643631 209.68506902 -387.6853784 208.99512755 -386.43432617 208.30517578 C-383.89035739 206.90223871 -381.34632019 205.49942579 -378.80224609 204.09667969 C-373.90086569 201.39405668 -369.0002128 198.69011553 -364.09960938 195.98608398 C-361.69607337 194.65987568 -359.29242124 193.3338782 -356.88867188 192.00805664 C-351.40263838 188.98200562 -345.91718985 185.95491482 -340.43434143 182.9230957 C-327.424383 175.72917193 -314.39670472 168.5722126 -301.31640625 161.5065918 C-293.36148197 157.2059274 -285.44917639 152.83307437 -277.55322266 148.42529297 C-262.55398158 140.05222265 -247.53676185 131.71935853 -232.4206543 123.55883789 C-224.43003733 119.24229691 -216.48317778 114.85205507 -208.55322266 110.42529297 C-193.55255861 102.0514283 -178.534172 93.71725911 -163.41625977 85.55664062 C-156.98389583 82.08217048 -150.57728571 78.56593819 -144.19238281 75.00512695 C-137.20237767 71.1073288 -130.19592911 67.23953609 -123.1875 63.375 C-121.93660352 62.68514232 -120.68570835 61.99528228 -119.43481445 61.30541992 C-116.89068021 59.90240637 -114.34647853 58.49951517 -111.80224609 57.09667969 C-106.90086569 54.39405668 -102.0002128 51.69011553 -97.09960938 48.98608398 C-94.69607337 47.65987568 -92.29242124 46.3338782 -89.88867188 45.00805664 C-84.40262238 41.98199679 -78.91715357 38.9549049 -73.43429565 35.92306519 C-70.35237919 34.21891217 -67.2700176 32.51556537 -64.1875 30.8125 C-63.58397705 30.47899536 -62.9804541 30.14549072 -62.35864258 29.80187988 C-53.12936036 24.70377066 -43.87141749 19.66071372 -34.57568359 14.68457031 C-29.66038837 12.03960582 -24.8110234 9.32097456 -20.01953125 6.45703125 C-19.05917969 5.88758789 -18.09882812 5.31814453 -17.109375 4.73144531 C-15.29116601 3.6464875 -13.48191864 2.54631775 -11.68359375 1.42871094 C-10.87664062 0.94821289 -10.0696875 0.46771484 -9.23828125 -0.02734375 C-8.53743408 -0.45781006 -7.83658691 -0.88827637 -7.11450195 -1.33178711 C-4.10465854 -2.28294072 -2.77682242 -1.40252081 0 0 Z " fill="#050708" transform="translate(1216,29)"/>
<path d="M0 0 C0.8544873 0.43094971 1.70897461 0.86189941 2.58935547 1.3059082 C3.50604004 1.79921631 4.42272461 2.29252441 5.3671875 2.80078125 C6.92469727 3.63802734 6.92469727 3.63802734 8.51367188 4.4921875 C9.62291016 5.09289063 10.73214844 5.69359375 11.875 6.3125 C13.61233398 7.25029297 13.61233398 7.25029297 15.38476562 8.20703125 C23.75335146 12.73510915 32.04554393 17.39108316 40.31201172 22.1027832 C48.5732733 26.7964562 56.93472492 31.29117898 65.31298828 35.77172852 C72.38948923 39.56635111 79.40098176 43.45800992 86.375 47.4375 C94.94817761 52.32691966 103.60359004 57.0459213 112.3125 61.6875 C122.09760374 66.90361364 131.83722191 72.18737426 141.51123047 77.60693359 C156.47975982 85.98543354 171.48459837 94.29217291 186.5793457 102.44116211 C195.42763284 107.22101756 204.21892067 112.09811234 213 117 C227.1520971 124.89441394 241.32351731 132.74571985 255.58374023 140.44335938 C262.01610417 143.91782952 268.42271429 147.43406181 274.80761719 150.99487305 C281.79762233 154.8926712 288.80407089 158.76046391 295.8125 162.625 C297.06339648 163.31485768 298.31429165 164.00471772 299.56518555 164.69458008 C302.10931979 166.09759363 304.65352147 167.50048483 307.19775391 168.90332031 C312.09913431 171.60594332 316.9997872 174.30988447 321.90039062 177.01391602 C324.30392663 178.34012432 326.70757876 179.6661218 329.11132812 180.99194336 C334.59736162 184.01799438 340.08281015 187.04508518 345.56565857 190.0769043 C358.575617 197.27082807 371.60329528 204.4277874 384.68359375 211.4934082 C393.49603114 216.25766923 402.25292481 221.11709457 411 226 C425.1520971 233.89441394 439.32351731 241.74571985 453.58374023 249.44335938 C460.01610417 252.91782952 466.42271429 256.43406181 472.80761719 259.99487305 C479.79762233 263.8926712 486.80407089 267.76046391 493.8125 271.625 C495.06339648 272.31485768 496.31429165 273.00471772 497.56518555 273.69458008 C500.10931979 275.09759363 502.65352147 276.50048483 505.19775391 277.90332031 C510.09913431 280.60594332 514.9997872 283.30988447 519.90039062 286.01391602 C522.30392663 287.34012432 524.70757876 288.6661218 527.11132812 289.99194336 C532.59736162 293.01799438 538.08281015 296.04508518 543.56565857 299.0769043 C556.575617 306.27082807 569.60329528 313.4277874 582.68359375 320.4934082 C591.49603114 325.25766923 600.25292481 330.11709457 609 335 C623.15067282 342.89361944 637.32090749 350.74365937 651.5793457 358.44116211 C660.42763284 363.22101756 669.21892067 368.09811234 678 373 C692.1520971 380.89441394 706.32351731 388.74571985 720.58374023 396.44335938 C727.01610417 399.91782952 733.42271429 403.43406181 739.80761719 406.99487305 C746.79762233 410.8926712 753.80407089 414.76046391 760.8125 418.625 C762.06339648 419.31485768 763.31429165 420.00471772 764.56518555 420.69458008 C767.10931979 422.09759363 769.65352147 423.50048483 772.19775391 424.90332031 C777.09913431 427.60594332 781.9997872 430.30988447 786.90039062 433.01391602 C789.30392663 434.34012432 791.70757876 435.6661218 794.11132812 436.99194336 C799.59738757 440.0180087 805.08286499 443.04510851 810.56573486 446.07695007 C813.64764025 447.78109964 816.72997186 449.48447717 819.8125 451.1875 C820.41668762 451.52133698 821.02087524 451.85517395 821.64337158 452.1991272 C829.86366702 456.73932491 838.10844995 461.23196275 846.375 465.6875 C854.09412818 469.84841814 861.75436253 474.09892436 869.375 478.4375 C878.73028083 483.76354619 888.17779904 488.90020774 897.66625977 493.98461914 C905.1801264 498.0126887 912.65042145 502.10910138 920.09375 506.265625 C926.32052886 509.74189259 932.56743465 513.18173939 938.8125 516.625 C940.06356369 517.31493098 941.3146216 518.00487245 942.56567383 518.69482422 C945.10964261 520.09776129 947.65367981 521.50057421 950.19775391 522.90332031 C955.09913431 525.60594332 959.9997872 528.30988447 964.90039062 531.01391602 C967.30392663 532.34012432 969.70757876 533.6661218 972.11132812 534.99194336 C977.59736162 538.01799438 983.08281015 541.04508518 988.56565857 544.0769043 C1000.58207717 550.72144509 1012.60632304 557.34856551 1024.6875 563.875 C1041.59981874 573.01357655 1058.30405205 582.45945832 1075 592 C1075 984.7 1075 1377.4 1075 1782 C1063.12 1788.435 1063.12 1788.435 1051 1795 C1045.84660488 1797.85081432 1040.69549764 1800.70411979 1035.55322266 1803.57470703 C1020.55255861 1811.9485717 1005.534172 1820.28274089 990.41625977 1828.44335938 C983.98389583 1831.91782952 977.57728571 1835.43406181 971.19238281 1838.99487305 C964.20237767 1842.8926712 957.19592911 1846.76046391 950.1875 1850.625 C948.93660352 1851.31485768 947.68570835 1852.00471772 946.43481445 1852.69458008 C943.89068021 1854.09759363 941.34647853 1855.50048483 938.80224609 1856.90332031 C933.90086569 1859.60594332 929.0002128 1862.30988447 924.09960938 1865.01391602 C921.69607337 1866.34012432 919.29242124 1867.6661218 916.88867188 1868.99194336 C911.40263838 1872.01799438 905.91718985 1875.04508518 900.43434143 1878.0769043 C887.424383 1885.27082807 874.39670472 1892.4277874 861.31640625 1899.4934082 C853.36148197 1903.7940726 845.44917639 1908.16692563 837.55322266 1912.57470703 C822.55255861 1920.9485717 807.534172 1929.28274089 792.41625977 1937.44335938 C785.98389583 1940.91782952 779.57728571 1944.43406181 773.19238281 1947.99487305 C766.20237767 1951.8926712 759.19592911 1955.76046391 752.1875 1959.625 C750.93660352 1960.31485768 749.68570835 1961.00471772 748.43481445 1961.69458008 C745.89068021 1963.09759363 743.34647853 1964.50048483 740.80224609 1965.90332031 C735.90086569 1968.60594332 731.0002128 1971.30988447 726.09960938 1974.01391602 C723.69607336 1975.34012432 721.29242124 1976.6661218 718.88867188 1977.99194336 C713.40261243 1981.0180087 707.91713501 1984.04510851 702.43426514 1987.07695007 C699.35235975 1988.78109964 696.27002814 1990.48447717 693.1875 1992.1875 C692.58331238 1992.52133698 691.97912476 1992.85517395 691.35662842 1993.1991272 C683.13633298 1997.73932491 674.89155005 2002.23196275 666.625 2006.6875 C658.90587182 2010.84841814 651.24563747 2015.09892436 643.625 2019.4375 C634.26971917 2024.76354619 624.82220096 2029.90020774 615.33374023 2034.98461914 C607.8198736 2039.0126887 600.34957855 2043.10910138 592.90625 2047.265625 C586.67947114 2050.74189259 580.43256535 2054.18173939 574.1875 2057.625 C572.93643631 2058.31493098 571.6853784 2059.00487245 570.43432617 2059.69482422 C567.89035739 2061.09776129 565.34632019 2062.50057421 562.80224609 2063.90332031 C557.90086569 2066.60594332 553.0002128 2069.30988447 548.09960938 2072.01391602 C545.69607337 2073.34012432 543.29242124 2074.6661218 540.88867188 2075.99194336 C535.40261243 2079.0180087 529.91713501 2082.04510851 524.43426514 2085.07695007 C521.35235975 2086.78109964 518.27002814 2088.48447717 515.1875 2090.1875 C514.58331238 2090.52133698 513.97912476 2090.85517395 513.35662842 2091.1991272 C505.13633298 2095.73932491 496.89155005 2100.23196275 488.625 2104.6875 C480.90587182 2108.84841814 473.24563747 2113.09892436 465.625 2117.4375 C456.26971917 2122.76354619 446.82220096 2127.90020774 437.33374023 2132.98461914 C429.8198736 2137.0126887 422.34957855 2141.10910138 414.90625 2145.265625 C408.67947114 2148.74189259 402.43256535 2152.18173939 396.1875 2155.625 C394.93643631 2156.31493098 393.6853784 2157.00487245 392.43432617 2157.69482422 C389.89035739 2159.09776129 387.34632019 2160.50057421 384.80224609 2161.90332031 C379.90086569 2164.60594332 375.0002128 2167.30988447 370.09960938 2170.01391602 C367.69607337 2171.34012432 365.29242124 2172.6661218 362.88867188 2173.99194336 C357.40261243 2177.0180087 351.91713501 2180.04510851 346.43426514 2183.07695007 C343.35235975 2184.78109964 340.27002814 2186.48447717 337.1875 2188.1875 C336.58331238 2188.52133698 335.97912476 2188.85517395 335.35662842 2189.1991272 C327.13633298 2193.73932491 318.89155005 2198.23196275 310.625 2202.6875 C302.90587182 2206.84841814 295.24563747 2211.09892436 287.625 2215.4375 C278.26971917 2220.76354619 268.82220096 2225.90020774 259.33374023 2230.98461914 C251.8198736 2235.0126887 244.34957855 2239.10910138 236.90625 2243.265625 C230.67947114 2246.74189259 224.43256535 2250.18173939 218.1875 2253.625 C216.93643631 2254.31493098 215.6853784 2255.00487245 214.43432617 2255.69482422 C211.89035739 2257.09776129 209.34632019 2258.50057421 206.80224609 2259.90332031 C201.90086569 2262.60594332 197.0002128 2265.30988447 192.09960938 2268.01391602 C189.69607337 2269.34012432 187.29242124 2270.6661218 184.88867188 2271.99194336 C179.40263838 2275.01799438 173.91718985 2278.04508518 168.43434143 2281.0769043 C155.424383 2288.27082807 142.39670472 2295.4277874 129.31640625 2302.4934082 C121.36148197 2306.7940726 113.44917639 2311.16692563 105.55322266 2315.57470703 C90.55255861 2323.9485717 75.534172 2332.28274089 60.41625977 2340.44335938 C54.00005648 2343.90910027 47.60881965 2347.41524882 41.24072266 2350.96850586 C36.39688231 2353.67056744 31.54493963 2356.3576229 26.6875 2359.03515625 C26.0412114 2359.39142593 25.39492279 2359.74769562 24.72904968 2360.11476135 C22.1167192 2361.55457747 19.50425189 2362.99414364 16.89126587 2364.43276978 C15.65340952 2365.11431103 14.41577832 2365.79626141 13.1783905 2366.47865295 C11.44830769 2367.43132543 9.7156479 2368.37931337 7.98291016 2369.32714844 C5.59983181 2370.66360717 3.31152319 2372.06885063 1.01171875 2373.5390625 C-2.67539784 2375.32762489 -4.07412717 2374.93762255 -8 2374 C-10.51928711 2372.89941406 -10.51928711 2372.89941406 -13.02734375 2371.515625 C-13.97206543 2370.99943604 -14.91678711 2370.48324707 -15.89013672 2369.95141602 C-17.39858154 2369.10921509 -17.39858154 2369.10921509 -18.9375 2368.25 C-19.99727051 2367.66726318 -21.05704102 2367.08452637 -22.14892578 2366.48413086 C-30.20343691 2362.04118942 -38.20530254 2357.50480404 -46.19970703 2352.95483398 C-54.61904631 2348.1772784 -63.13400707 2343.5874062 -71.66625977 2339.01538086 C-79.1801264 2334.9873113 -86.65042145 2330.89089862 -94.09375 2326.734375 C-100.32052886 2323.25810741 -106.56743465 2319.81826061 -112.8125 2316.375 C-114.06356369 2315.68506902 -115.3146216 2314.99512755 -116.56567383 2314.30517578 C-119.10964261 2312.90223871 -121.65367981 2311.49942579 -124.19775391 2310.09667969 C-129.09913431 2307.39405668 -133.9997872 2304.69011553 -138.90039062 2301.98608398 C-141.30392664 2300.65987568 -143.70757876 2299.3338782 -146.11132812 2298.00805664 C-151.59736162 2294.98200562 -157.08281015 2291.95491482 -162.56565857 2288.9230957 C-175.575617 2281.72917193 -188.60329528 2274.5722126 -201.68359375 2267.5065918 C-210.49603114 2262.74233077 -219.25292481 2257.88290543 -228 2253 C-242.1520971 2245.10558606 -256.32351731 2237.25428015 -270.58374023 2229.55664062 C-277.01610417 2226.08217048 -283.42271429 2222.56593819 -289.80761719 2219.00512695 C-296.79762233 2215.1073288 -303.80407089 2211.23953609 -310.8125 2207.375 C-312.06339648 2206.68514232 -313.31429165 2205.99528228 -314.56518555 2205.30541992 C-317.10931979 2203.90240637 -319.65352147 2202.49951517 -322.19775391 2201.09667969 C-327.09913431 2198.39405668 -331.9997872 2195.69011553 -336.90039062 2192.98608398 C-339.30392663 2191.65987568 -341.70757876 2190.3338782 -344.11132812 2189.00805664 C-349.59738757 2185.9819913 -355.08286499 2182.95489149 -360.56573486 2179.92304993 C-363.64764025 2178.21890036 -366.72997186 2176.51552283 -369.8125 2174.8125 C-370.71878143 2174.31174454 -370.71878143 2174.31174454 -371.64337158 2173.8008728 C-379.86366702 2169.26067509 -388.10844995 2164.76803725 -396.375 2160.3125 C-404.09412818 2156.15158186 -411.75436253 2151.90107564 -419.375 2147.5625 C-428.7288604 2142.23726247 -438.17503388 2137.10156268 -447.66186523 2132.01757812 C-455.9787517 2127.55870795 -464.24279942 2123.01494029 -472.47900391 2118.40917969 C-487.46437683 2110.03269581 -502.47650169 2101.71149747 -517.58374023 2093.55664062 C-524.01610417 2090.08217048 -530.42271429 2086.56593819 -536.80761719 2083.00512695 C-543.79762233 2079.1073288 -550.80407089 2075.23953609 -557.8125 2071.375 C-559.06339648 2070.68514232 -560.31429165 2069.99528228 -561.56518555 2069.30541992 C-564.10931979 2067.90240637 -566.65352147 2066.49951517 -569.19775391 2065.09667969 C-574.09913431 2062.39405668 -578.9997872 2059.69011553 -583.90039062 2056.98608398 C-586.30392663 2055.65987568 -588.70757876 2054.3338782 -591.11132812 2053.00805664 C-596.59738757 2049.9819913 -602.08286499 2046.95489149 -607.56573486 2043.92304993 C-610.64764025 2042.21890036 -613.72997186 2040.51552283 -616.8125 2038.8125 C-617.71878143 2038.31174454 -617.71878143 2038.31174454 -618.64337158 2037.8008728 C-626.86366702 2033.26067509 -635.10844995 2028.76803725 -643.375 2024.3125 C-651.09412818 2020.15158186 -658.75436253 2015.90107564 -666.375 2011.5625 C-675.73028083 2006.23645381 -685.17779904 2001.09979226 -694.66625977 1996.01538086 C-702.1801264 1991.9873113 -709.65042145 1987.89089862 -717.09375 1983.734375 C-723.32052886 1980.25810741 -729.56743465 1976.81826061 -735.8125 1973.375 C-737.06356369 1972.68506902 -738.3146216 1971.99512755 -739.56567383 1971.30517578 C-742.10964261 1969.90223871 -744.65367981 1968.49942579 -747.19775391 1967.09667969 C-752.09913431 1964.39405668 -756.9997872 1961.69011553 -761.90039062 1958.98608398 C-764.30392663 1957.65987568 -766.70757876 1956.3338782 -769.11132812 1955.00805664 C-774.59738757 1951.9819913 -780.08286499 1948.95489149 -785.56573486 1945.92304993 C-788.64764025 1944.21890036 -791.72997186 1942.51552283 -794.8125 1940.8125 C-795.71878143 1940.31174454 -795.71878143 1940.31174454 -796.64337158 1939.8008728 C-804.86366702 1935.26067509 -813.10844995 1930.76803725 -821.375 1926.3125 C-829.09412818 1922.15158186 -836.75436253 1917.90107564 -844.375 1913.5625 C-853.73028083 1908.23645381 -863.17779904 1903.09979226 -872.66625977 1898.01538086 C-880.1801264 1893.9873113 -887.65042145 1889.89089862 -895.09375 1885.734375 C-901.32052886 1882.25810741 -907.56743465 1878.81826061 -913.8125 1875.375 C-915.06356369 1874.68506902 -916.3146216 1873.99512755 -917.56567383 1873.30517578 C-920.10964261 1871.90223871 -922.65367981 1870.49942579 -925.19775391 1869.09667969 C-930.09913431 1866.39405668 -934.9997872 1863.69011553 -939.90039062 1860.98608398 C-942.30392663 1859.65987568 -944.70757876 1858.3338782 -947.11132812 1857.00805664 C-952.59736162 1853.98200562 -958.08281015 1850.95491482 -963.56565857 1847.9230957 C-976.575617 1840.72917193 -989.60329528 1833.5722126 -1002.68359375 1826.5065918 C-1011.49603114 1821.74233077 -1020.25292481 1816.88290543 -1029 1812 C-1033.37373123 1809.56021708 -1037.7487906 1807.12283512 -1042.125 1804.6875 C-1043.83296753 1803.73701782 -1043.83296753 1803.73701782 -1045.57543945 1802.76733398 C-1054.5389641 1797.7892829 -1063.54228403 1792.88775001 -1072.57470703 1788.03588867 C-1073.50911621 1787.5329126 -1074.44352539 1787.02993652 -1075.40625 1786.51171875 C-1076.22416016 1786.07303467 -1077.04207031 1785.63435059 -1077.88476562 1785.18237305 C-1079.63762933 1784.20255784 -1081.32913839 1783.11390774 -1083 1782 C-1083.29893193 1779.298638 -1083.39870835 1776.82565961 -1083.37259549 1774.12128818 C-1083.37642975 1773.29236349 -1083.38026401 1772.46343881 -1083.38421445 1771.60939519 C-1083.39349667 1768.79583828 -1083.38115816 1765.98277438 -1083.36914349 1763.16923332 C-1083.37135999 1761.13744125 -1083.37489316 1759.10565025 -1083.37963298 1757.07386249 C-1083.3888975 1751.44178782 -1083.37926753 1745.8098739 -1083.36679858 1740.17781112 C-1083.35654468 1734.0691272 -1083.36359902 1727.9604605 -1083.36853105 1721.85177338 C-1083.37476952 1711.12944353 -1083.36988939 1700.40716913 -1083.35761642 1689.68484879 C-1083.34450021 1678.17524943 -1083.33789657 1666.66567395 -1083.33932304 1655.15606689 C-1083.33940912 1654.43017991 -1083.3394952 1653.70429293 -1083.33958388 1652.95640937 C-1083.34005298 1649.2553677 -1083.34062883 1645.55432606 -1083.34124239 1641.85328442 C-1083.34546934 1615.03731091 -1083.33515696 1588.22135867 -1083.31719017 1561.40539169 C-1083.29943471 1534.84147919 -1083.2878673 1508.27757578 -1083.28463173 1481.71365738 C-1083.28452849 1480.889286 -1083.28442526 1480.06491463 -1083.28431889 1479.2155623 C-1083.28337932 1471.68641804 -1083.28251625 1464.15727377 -1083.28174497 1456.62812948 C-1083.27982656 1437.90986777 -1083.27694845 1419.19160628 -1083.27341938 1400.4733448 C-1083.27325943 1399.62087011 -1083.27309948 1398.76839542 -1083.27293468 1397.89008817 C-1083.26506637 1356.40214519 -1083.24614216 1314.91420823 -1083.22631836 1273.42626953 C-1083.2194435 1259.02547205 -1083.21261747 1244.62467455 -1083.20599365 1230.22387695 C-1083.2055828 1229.33076206 -1083.20517196 1228.43764717 -1083.20474866 1227.5174682 C-1083.18572336 1186.01413086 -1083.17454189 1144.51079249 -1083.16538927 1103.00745194 C-1083.16479507 1100.31367771 -1083.1641975 1097.61990347 -1083.16359923 1094.92612924 C-1083.15963995 1077.0746426 -1083.15581599 1059.22315593 -1083.15208265 1041.37166923 C-1083.14465276 1005.85034955 -1083.1364277 970.32903006 -1083.12765651 934.80771067 C-1083.12723879 933.11601737 -1083.12682163 931.42432406 -1083.12640502 929.73263076 C-1083.10764104 853.55726519 -1083.07962574 777.38190403 -1083.04760742 701.20654297 C-1083.04730762 700.49312827 -1083.04700781 699.77971357 -1083.04669892 699.04468024 C-1083.03169693 663.36311991 -1083.01616731 627.68155982 -1083 592 C-1080.47696323 590.57922976 -1077.95374306 589.15878689 -1075.43041992 587.73852539 C-1074.72499809 587.34124489 -1074.01957626 586.94396439 -1073.29277802 586.53464508 C-1066.65318302 582.79811836 -1059.98693193 579.11146452 -1053.3125 575.4375 C-1052.06376135 574.74942289 -1050.81506454 574.06126982 -1049.56640625 573.37304688 C-1046.98925435 571.95267289 -1044.41192842 570.53261548 -1041.83447266 569.11279297 C-1036.32086347 566.07522291 -1030.80949882 563.03358617 -1025.29803467 559.99212646 C-1023.49517567 558.99733801 -1021.69218813 558.00278292 -1019.88916016 557.00830078 C-1014.4029533 553.98218756 -1008.91734898 550.95500282 -1003.43434143 547.9230957 C-990.42295337 540.72838141 -977.39407171 533.57019715 -964.31201172 526.50439453 C-957.91488755 523.0462281 -951.54299322 519.54675733 -945.19189453 516.00488281 C-938.20208593 512.10710548 -931.1957698 508.23944824 -924.1875 504.375 C-922.93660352 503.68514232 -921.68570835 502.99528228 -920.43481445 502.30541992 C-917.89068021 500.90240637 -915.34647853 499.49951517 -912.80224609 498.09667969 C-907.90086569 495.39405668 -903.0002128 492.69011553 -898.09960938 489.98608398 C-895.69607337 488.65987568 -893.29242124 487.3338782 -890.88867188 486.00805664 C-885.40261243 482.9819913 -879.91713501 479.95489149 -874.43426514 476.92304993 C-871.35235975 475.21890036 -868.27002814 473.51552283 -865.1875 471.8125 C-864.58331238 471.47866302 -863.97912476 471.14482605 -863.35662842 470.8008728 C-855.13633298 466.26067509 -846.89155005 461.76803725 -838.625 457.3125 C-830.90587182 453.15158186 -823.24563747 448.90107564 -815.625 444.5625 C-806.26971917 439.23645381 -796.82220096 434.09979226 -787.33374023 429.01538086 C-779.8198736 424.9873113 -772.34957855 420.89089862 -764.90625 416.734375 C-758.67947114 413.25810741 -752.43256535 409.81826061 -746.1875 406.375 C-744.93643631 405.68506902 -743.6853784 404.99512755 -742.43432617 404.30517578 C-739.89035739 402.90223871 -737.34632019 401.49942579 -734.80224609 400.09667969 C-729.90086569 397.39405668 -725.0002128 394.69011553 -720.09960938 391.98608398 C-717.69607337 390.65987568 -715.29242124 389.3338782 -712.88867188 388.00805664 C-707.40261243 384.9819913 -701.91713501 381.95489149 -696.43426514 378.92304993 C-693.35235975 377.21890036 -690.27002814 375.51552283 -687.1875 373.8125 C-686.58331238 373.47866302 -685.97912476 373.14482605 -685.35662842 372.8008728 C-677.13633298 368.26067509 -668.89155005 363.76803725 -660.625 359.3125 C-652.90587182 355.15158186 -645.24563747 350.90107564 -637.625 346.5625 C-628.26971917 341.23645381 -618.82220096 336.09979226 -609.33374023 331.01538086 C-601.8198736 326.9873113 -594.34957855 322.89089862 -586.90625 318.734375 C-580.67947114 315.25810741 -574.43256535 311.81826061 -568.1875 308.375 C-566.93643631 307.68506902 -565.6853784 306.99512755 -564.43432617 306.30517578 C-561.89035739 304.90223871 -559.34632019 303.49942579 -556.80224609 302.09667969 C-551.90086569 299.39405668 -547.0002128 296.69011553 -542.09960938 293.98608398 C-539.69607337 292.65987568 -537.29242124 291.3338782 -534.88867188 290.00805664 C-529.40261243 286.9819913 -523.91713501 283.95489149 -518.43426514 280.92304993 C-515.35235975 279.21890036 -512.27002814 277.51552283 -509.1875 275.8125 C-508.58331238 275.47866302 -507.97912476 275.14482605 -507.35662842 274.8008728 C-499.13633298 270.26067509 -490.89155005 265.76803725 -482.625 261.3125 C-474.90587182 257.15158186 -467.24563747 252.90107564 -459.625 248.5625 C-450.26971917 243.23645381 -440.82220096 238.09979226 -431.33374023 233.01538086 C-423.8198736 228.9873113 -416.34957855 224.89089862 -408.90625 220.734375 C-402.67947114 217.25810741 -396.43256535 213.81826061 -390.1875 210.375 C-388.93643631 209.68506902 -387.6853784 208.99512755 -386.43432617 208.30517578 C-383.89035739 206.90223871 -381.34632019 205.49942579 -378.80224609 204.09667969 C-373.90086569 201.39405668 -369.0002128 198.69011553 -364.09960938 195.98608398 C-361.69607337 194.65987568 -359.29242124 193.3338782 -356.88867188 192.00805664 C-351.40263838 188.98200562 -345.91718985 185.95491482 -340.43434143 182.9230957 C-327.424383 175.72917193 -314.39670472 168.5722126 -301.31640625 161.5065918 C-293.36148197 157.2059274 -285.44917639 152.83307437 -277.55322266 148.42529297 C-262.55398158 140.05222265 -247.53676185 131.71935853 -232.4206543 123.55883789 C-224.43003733 119.24229691 -216.48317778 114.85205507 -208.55322266 110.42529297 C-193.55255861 102.0514283 -178.534172 93.71725911 -163.41625977 85.55664062 C-156.98389583 82.08217048 -150.57728571 78.56593819 -144.19238281 75.00512695 C-137.20237767 71.1073288 -130.19592911 67.23953609 -123.1875 63.375 C-121.93660352 62.68514232 -120.68570835 61.99528228 -119.43481445 61.30541992 C-116.89068021 59.90240637 -114.34647853 58.49951517 -111.80224609 57.09667969 C-106.90086569 54.39405668 -102.0002128 51.69011553 -97.09960938 48.98608398 C-94.69607337 47.65987568 -92.29242124 46.3338782 -89.88867188 45.00805664 C-84.40262238 41.98199679 -78.91715357 38.9549049 -73.43429565 35.92306519 C-70.35237919 34.21891217 -67.2700176 32.51556537 -64.1875 30.8125 C-63.58397705 30.47899536 -62.9804541 30.14549072 -62.35864258 29.80187988 C-53.12936036 24.70377066 -43.87141749 19.66071372 -34.57568359 14.68457031 C-29.66038837 12.03960582 -24.8110234 9.32097456 -20.01953125 6.45703125 C-19.05917969 5.88758789 -18.09882812 5.31814453 -17.109375 4.73144531 C-15.29116601 3.6464875 -13.48191864 2.54631775 -11.68359375 1.42871094 C-10.87664062 0.94821289 -10.0696875 0.46771484 -9.23828125 -0.02734375 C-8.53743408 -0.45781006 -7.83658691 -0.88827637 -7.11450195 -1.33178711 C-4.10465854 -2.28294072 -2.77682242 -1.40252081 0 0 Z M-14.08984375 186.671875 C-14.86209793 187.06502899 -15.63435211 187.45818298 -16.43000793 187.86325073 C-18.94008209 189.14462374 -21.43840946 190.44735605 -23.9375 191.75 C-25.67710895 192.6416689 -27.41767554 193.53147186 -29.15917969 194.41943359 C-31.750896 195.74099871 -34.34209144 197.06344682 -36.93032837 198.39181519 C-43.1515579 201.58359891 -49.41959264 204.65510564 -55.75 207.625 C-65.99604956 212.46088229 -76.11510763 217.53949779 -86.2388916 222.62457275 C-95.83168252 227.44094991 -105.45579573 232.16926024 -115.16015625 236.7578125 C-123.83653012 240.88001573 -132.41662468 245.18864718 -141 249.5 C-151.33852156 254.69294712 -161.70043649 259.81210066 -172.16015625 264.7578125 C-180.83653023 268.88001579 -189.4166227 273.18865101 -198 277.5 C-207.41930306 282.23121246 -216.84428097 286.93335278 -226.375 291.4375 C-236.32638486 296.14125651 -246.16410145 301.06086897 -256 306 C-266.70587107 311.37599079 -277.42992885 316.68957008 -288.26171875 321.80859375 C-297.65893444 326.27058106 -306.94290439 330.95528782 -316.23834229 335.6242981 C-325.83131653 340.44076675 -335.45561052 345.16917267 -345.16015625 349.7578125 C-353.83653023 353.88001579 -362.4166227 358.18865101 -371 362.5 C-380.41930306 367.23121246 -389.84428097 371.93335278 -399.375 376.4375 C-409.32638486 381.14125651 -419.16410145 386.06086897 -429 391 C-439.70587107 396.37599079 -450.42992885 401.68957008 -461.26171875 406.80859375 C-469.90486295 410.91253272 -478.45044453 415.205657 -487 419.5 C-496.4193052 424.23120825 -505.84428085 428.93335273 -515.375 433.4375 C-525.32638486 438.14125651 -535.16410145 443.06086897 -545 448 C-555.70587107 453.37599079 -566.42992885 458.68957008 -577.26171875 463.80859375 C-586.65893444 468.27058106 -595.94290439 472.95528782 -605.23834229 477.6242981 C-614.83131653 482.44076675 -624.45561052 487.16917267 -634.16015625 491.7578125 C-642.83653012 495.88001573 -651.41662468 500.18864718 -660 504.5 C-670.33852156 509.69294712 -680.70043649 514.81210066 -691.16015625 519.7578125 C-699.83653023 523.88001579 -708.4166227 528.18865101 -717 532.5 C-726.41930306 537.23121246 -735.84428097 541.93335278 -745.375 546.4375 C-755.32638486 551.14125651 -765.16410145 556.06086897 -775 561 C-785.70587107 566.37599079 -796.42992885 571.68957008 -807.26171875 576.80859375 C-816.65893444 581.27058106 -825.94290439 585.95528782 -835.23834229 590.6242981 C-844.83131653 595.44076675 -854.45561052 600.16917267 -864.16015625 604.7578125 C-872.83653023 608.88001579 -881.4166227 613.18865101 -890 617.5 C-899.41978674 622.23145541 -908.84794546 626.92431869 -918.375 631.4375 C-934.35185746 639.0823404 -950.15819306 647.07909653 -966 655 C-966 1006.12 -966 1357.24 -966 1719 C-946.07719956 1728.96927636 -946.07719956 1728.96927636 -926.04345703 1738.64916992 C-916.96362172 1742.96877961 -907.98518091 1747.48799412 -899 1752 C-888.29413736 1757.37600785 -877.57007082 1762.68957024 -866.73828125 1767.80859375 C-857.34106556 1772.27058106 -848.05709561 1776.95528782 -838.76165771 1781.6242981 C-830.0461641 1786.0001987 -821.31699666 1790.33102361 -812.5 1794.5 C-802.17346082 1799.38273952 -791.96893996 1804.49727257 -781.76220703 1809.62402344 C-773.04653019 1814.00001554 -764.3171818 1818.33093606 -755.5 1822.5 C-745.17346082 1827.38273952 -734.96893996 1832.49727257 -724.76220703 1837.62402344 C-716.04653019 1842.00001554 -707.3171818 1846.33093606 -698.5 1850.5 C-688.92808658 1855.02592676 -679.46089453 1859.74788243 -670 1864.5 C-660.58069694 1869.23121246 -651.15571903 1873.93335278 -641.625 1878.4375 C-630.8708485 1883.52070307 -620.24858087 1888.85794612 -609.6192627 1894.19549561 C-599.70636305 1899.17136145 -589.76691906 1904.06913381 -579.73828125 1908.80859375 C-570.34106556 1913.27058106 -561.05709561 1917.95528782 -551.76165771 1922.6242981 C-543.0461641 1927.0001987 -534.31699666 1931.33102361 -525.5 1935.5 C-515.92808658 1940.02592676 -506.46089453 1944.74788243 -497 1949.5 C-487.58069694 1954.23121246 -478.15571903 1958.93335278 -468.625 1963.4375 C-457.8708485 1968.52070307 -447.24858087 1973.85794612 -436.6192627 1979.19549561 C-426.70636305 1984.17136145 -416.76691906 1989.06913381 -406.73828125 1993.80859375 C-397.34038728 1998.27090312 -388.05575992 2002.95597326 -378.75964355 2007.62530518 C-370.08640306 2011.97997192 -361.40006419 2016.29046966 -352.625 2020.4375 C-341.8708485 2025.52070307 -331.24858087 2030.85794612 -320.6192627 2036.19549561 C-310.70636305 2041.17136145 -300.76691906 2046.06913381 -290.73828125 2050.80859375 C-281.34106556 2055.27058106 -272.05709561 2059.95528782 -262.76165771 2064.6242981 C-254.0461641 2069.0001987 -245.31699666 2073.33102361 -236.5 2077.5 C-226.92808658 2082.02592676 -217.46089453 2086.74788243 -208 2091.5 C-198.58069694 2096.23121246 -189.15571903 2100.93335278 -179.625 2105.4375 C-168.8708485 2110.52070307 -158.24858087 2115.85794612 -147.6192627 2121.19549561 C-137.70636305 2126.17136145 -127.76691906 2131.06913381 -117.73828125 2135.80859375 C-108.34038728 2140.27090312 -99.05575992 2144.95597326 -89.75964355 2149.62530518 C-80.22290103 2154.41351963 -70.65612911 2159.11600615 -61.00683594 2163.67431641 C-50.11674843 2168.8470107 -39.36136772 2174.29389754 -28.59619141 2179.72045898 C-25.03350678 2181.51541057 -21.4621376 2183.29199976 -17.88549805 2185.05895996 C-16.14440598 2185.9279279 -14.4162589 2186.82270445 -12.68945312 2187.71972656 C-11.73490234 2188.19635742 -10.78035156 2188.67298828 -9.796875 2189.1640625 C-9.00120117 2189.57350098 -8.20552734 2189.98293945 -7.38574219 2190.40478516 C-2.45751695 2191.63431986 2.14505906 2188.54745114 6.46484375 2186.34765625 C7.49931641 2185.82461914 8.53378906 2185.30158203 9.59960938 2184.76269531 C10.70111328 2184.20163086 11.80261719 2183.64056641 12.9375 2183.0625 C15.29997178 2181.86944518 17.66296341 2180.67753762 20.02734375 2179.48828125 C20.62139008 2179.18928925 21.2154364 2178.89029724 21.82748413 2178.58224487 C27.18237211 2175.89409019 32.58320153 2173.3104087 38 2170.75 C47.73706829 2166.1377955 57.37276695 2161.33574749 67 2156.5 C76.41929451 2151.76877066 85.84428142 2147.066647 95.375 2142.5625 C105.32638486 2137.85874349 115.16410145 2132.93913103 125 2128 C135.70587107 2122.62400921 146.42992885 2117.31042992 157.26171875 2112.19140625 C166.65893444 2107.72941894 175.94290439 2103.04471218 185.23834229 2098.3757019 C194.83131653 2093.55923325 204.45561052 2088.83082733 214.16015625 2084.2421875 C222.83653023 2080.11998421 231.4166227 2075.81134899 240 2071.5 C249.41930306 2066.76878754 258.84428097 2062.06664722 268.375 2057.5625 C278.32638486 2052.85874349 288.16410145 2047.93913103 298 2043 C308.70587107 2037.62400921 319.42992885 2032.31042992 330.26171875 2027.19140625 C338.90486295 2023.08746728 347.45044453 2018.794343 356 2014.5 C365.4193052 2009.76879175 374.84428085 2005.06664727 384.375 2000.5625 C394.32638486 1995.85874349 404.16410145 1990.93913103 414 1986 C424.70587107 1980.62400921 435.42992885 1975.31042992 446.26171875 1970.19140625 C455.65893444 1965.72941894 464.94290439 1961.04471218 474.23834229 1956.3757019 C483.83131653 1951.55923325 493.45561052 1946.83082733 503.16015625 1942.2421875 C511.83653012 1938.11998427 520.41662468 1933.81135282 529 1929.5 C539.33852156 1924.30705288 549.70043649 1919.18789934 560.16015625 1914.2421875 C568.83653023 1910.11998421 577.4166227 1905.81134899 586 1901.5 C595.41930306 1896.76878754 604.84428097 1892.06664722 614.375 1887.5625 C624.32638486 1882.85874349 634.16410145 1877.93913103 644 1873 C654.70587107 1867.62400921 665.42992885 1862.31042992 676.26171875 1857.19140625 C685.65893444 1852.72941894 694.94290439 1848.04471218 704.23834229 1843.3757019 C713.83131653 1838.55923325 723.45561052 1833.83082733 733.16015625 1829.2421875 C741.83653012 1825.11998427 750.41662468 1820.81135282 759 1816.5 C769.33852156 1811.30705288 779.70043649 1806.18789934 790.16015625 1801.2421875 C798.83653012 1797.11998427 807.41662468 1792.81135282 816 1788.5 C826.33852156 1783.30705288 836.70043649 1778.18789934 847.16015625 1773.2421875 C855.83653023 1769.11998421 864.4166227 1764.81134899 873 1760.5 C883.2814833 1755.33572387 893.58480499 1750.24221382 903.98876953 1745.32788086 C914.93960528 1740.12667458 925.75430638 1734.64803753 936.57958984 1729.19165039 C937.33284546 1728.81290771 938.08610107 1728.43416504 938.86218262 1728.04394531 C940.26861525 1727.3366963 941.67421028 1726.62777775 943.07873535 1725.91674805 C947.99983102 1723.44378636 952.95108925 1721.24396034 958 1719 C958 1367.88 958 1016.76 958 655 C930.5567399 641.22794524 930.5567399 641.22794524 902.953125 627.8671875 C894.49497 623.82698715 886.13702154 619.58256425 877.7611084 615.37542725 C869.04579802 610.99961815 860.31681152 606.66888885 851.5 602.5 C841.92808658 597.97407324 832.46089453 593.25211757 823 588.5 C813.58069694 583.76878754 804.15571903 579.06664722 794.625 574.5625 C783.8708485 569.47929693 773.24858087 564.14205388 762.6192627 558.80450439 C752.70636305 553.82863855 742.76691906 548.93086619 732.73828125 544.19140625 C723.34106556 539.72941894 714.05709561 535.04471218 704.76165771 530.3757019 C696.0461641 525.9998013 687.31699666 521.66897639 678.5 517.5 C668.17346082 512.61726048 657.96893996 507.50272743 647.76220703 502.37597656 C639.04653019 497.99998446 630.3171818 493.66906394 621.5 489.5 C611.17346082 484.61726048 600.96893996 479.50272743 590.76220703 474.37597656 C582.04653019 469.99998446 573.3171818 465.66906394 564.5 461.5 C554.17346082 456.61726048 543.96893996 451.50272743 533.76220703 446.37597656 C525.04653019 441.99998446 516.3171818 437.66906394 507.5 433.5 C497.92808658 428.97407324 488.46089453 424.25211757 479 419.5 C469.58069694 414.76878754 460.15571903 410.06664722 450.625 405.5625 C439.8708485 400.47929693 429.24858087 395.14205388 418.6192627 389.80450439 C408.70636305 384.82863855 398.76691906 379.93086619 388.73828125 375.19140625 C379.34038728 370.72909688 370.05575992 366.04402674 360.75964355 361.37469482 C352.08640306 357.02002808 343.40006419 352.70953034 334.625 348.5625 C323.8708485 343.47929693 313.24858087 338.14205388 302.6192627 332.80450439 C292.70636305 327.82863855 282.76691906 322.93086619 272.73828125 318.19140625 C263.34106556 313.72941894 254.05709561 309.04471218 244.76165771 304.3757019 C236.0461641 299.9998013 227.31699666 295.66897639 218.5 291.5 C208.17346082 286.61726048 197.96893996 281.50272743 187.76220703 276.37597656 C179.04653019 271.99998446 170.3171818 267.66906394 161.5 263.5 C151.17346082 258.61726048 140.96893996 253.50272743 130.76220703 248.37597656 C122.04653019 243.99998446 113.3171818 239.66906394 104.5 235.5 C94.92808658 230.97407324 85.46089453 226.25211757 76 221.5 C65.7212795 216.3371116 55.42446669 211.23618831 45.01782227 206.33447266 C38.898528 203.43409933 32.84205964 200.42179999 26.80078125 197.36328125 C25.99030334 196.95390823 25.17982544 196.54453522 24.3447876 196.12275696 C20.27698169 194.06767223 16.21359187 192.00460016 12.15673828 189.92797852 C10.65544959 189.16778353 9.15399219 188.40792162 7.65234375 187.6484375 C6.9689241 187.29481644 6.28550446 186.94119537 5.58137512 186.57685852 C-2.4684629 182.5302306 -6.40024543 182.59196251 -14.08984375 186.671875 Z " fill="#F1BC53" transform="translate(1216,29)"/>
<path d="M0 0 C3.72461356 1.48984542 7.25243934 3.04573755 10.84765625 4.80078125 C11.99459961 5.35846191 13.14154297 5.91614258 14.32324219 6.49072266 C14.93083374 6.78682434 15.53842529 7.08292603 16.16442871 7.38800049 C26.47694013 12.41094764 36.82602917 17.33661171 47.25 22.125 C59.99631292 27.99056807 72.59467356 34.1434396 85.19250488 40.32012939 C95.74621986 45.49232829 106.31587514 50.60150232 117 55.5 C129.50307508 61.23245681 141.84863851 67.26777376 154.19781494 73.32278442 C164.7080024 78.47372938 175.23369712 83.5618485 185.875 88.4375 C198.80775481 94.36436103 211.56863238 100.62570783 224.33874512 106.89324951 C235.21861555 112.23067309 246.11348988 117.50086279 257.125 122.5625 C275.54301228 131.10779399 293.75156462 140.09832421 312 149 C312 466.46 312 783.92 312 1111 C301.07798756 1116.7484276 290.32697613 1122.40018581 279.15240479 1127.56283569 C275.51288453 1129.24519755 271.88133295 1130.94458488 268.25 1132.64453125 C267.11825851 1133.174132 267.11825851 1133.174132 265.96365356 1133.71443176 C257.30487532 1137.77779756 248.71608451 1141.98344687 240.125 1146.1875 C229.54808147 1151.36068209 218.95115965 1156.46269293 208.25 1161.375 C195.66567747 1167.1523735 183.23560367 1173.2265068 170.80328369 1179.32223511 C160.29272979 1184.47336439 149.76667582 1189.56167763 139.125 1194.4375 C127.15030861 1199.9252969 115.324181 1205.69671942 103.5 1211.5 C90.6252143 1217.81891492 77.72943481 1224.04881085 64.68969727 1230.02148438 C52.06217793 1235.83586387 39.59614543 1241.98352041 27.11865234 1248.11157227 C2.89823431 1260 2.89823431 1260 0 1260 C0 1093.02 0 926.04 0 754 C-110.55 754 -221.1 754 -335 754 C-335 920.98 -335 1087.96 -335 1260 C-338.57716926 1259.28456615 -340.6373544 1258.86862549 -343.70336914 1257.34863281 C-344.39457352 1257.0097403 -345.08577789 1256.67084778 -345.79792786 1256.32168579 C-346.53621323 1255.95256073 -347.2744986 1255.58343567 -348.03515625 1255.203125 C-348.81698776 1254.81845062 -349.59881927 1254.43377625 -350.40434265 1254.03744507 C-352.08377542 1253.21073563 -353.76198645 1252.38154052 -355.43908691 1251.55010986 C-359.88663458 1249.34599622 -364.34367068 1247.16125785 -368.80078125 1244.9765625 C-369.68796844 1244.5413327 -370.57515564 1244.10610291 -371.48922729 1243.65768433 C-378.53097147 1240.21089926 -385.62013168 1236.88605335 -392.75 1233.625 C-405.72387425 1227.67681263 -418.52655615 1221.39492532 -431.3381958 1215.10702515 C-443.28020234 1209.24853867 -455.25444589 1203.50182661 -467.34765625 1197.9609375 C-477.81386404 1193.14081118 -488.15441384 1188.07261637 -498.5 1183 C-509.95015616 1177.38585446 -521.40724795 1171.81508849 -533 1166.5 C-544.59275652 1161.18490947 -556.04978698 1155.61403765 -567.5 1150 C-580.23639494 1143.75568447 -593.00163542 1137.6116715 -605.88989258 1131.68652344 C-615.03727627 1127.47255247 -624.12018292 1123.13285402 -633.1875 1118.75 C-633.87877991 1118.41672699 -634.57005981 1118.08345398 -635.2822876 1117.74008179 C-637.22453232 1116.80310238 -639.16527901 1115.86310091 -641.10546875 1114.921875 C-642.22074951 1114.38143555 -643.33603027 1113.84099609 -644.48510742 1113.28417969 C-647 1112 -647 1112 -648 1111 C-648.09839015 1108.90437638 -648.12447113 1106.8053614 -648.1241985 1104.70742935 C-648.12611563 1103.70345359 -648.12611563 1103.70345359 -648.12807148 1102.6791955 C-648.13116941 1100.40378765 -648.12705001 1098.12844733 -648.12304783 1095.85304165 C-648.12378654 1094.2112542 -648.12496414 1092.5694669 -648.12654433 1090.92768005 C-648.12963436 1086.37385098 -648.12642094 1081.82004398 -648.12226619 1077.26621654 C-648.11884977 1072.32805779 -648.12119938 1067.38990142 -648.12284368 1062.45174223 C-648.12492366 1053.78304167 -648.12326306 1045.11434796 -648.11920547 1036.44564819 C-648.11318861 1023.55545914 -648.11286798 1010.66527444 -648.11374746 997.77508424 C-648.11506368 976.09531891 -648.11171117 954.41555661 -648.10573006 932.73579216 C-648.09981196 911.25920535 -648.09595584 889.7826198 -648.09487724 868.30603218 C-648.09482563 867.30636345 -648.09482563 867.30636345 -648.09477296 866.2864994 C-648.09445977 860.19973746 -648.09417208 854.11297553 -648.09391499 848.02621359 C-648.09327551 832.89373741 -648.09231614 817.76126127 -648.09113979 802.62878513 C-648.09108648 801.93960884 -648.09103316 801.25043255 -648.09097823 800.54037213 C-648.08835533 766.99818707 -648.08204721 733.45600283 -648.07543945 699.91381836 C-648.07314784 688.2707723 -648.07087249 676.62772625 -648.06866455 664.98468018 C-648.0685276 664.26259863 -648.06839065 663.54051708 -648.06824955 662.79655427 C-648.06190802 629.24241845 -648.0581807 595.68828248 -648.05512976 562.13414622 C-648.05493169 559.9563674 -648.0547325 557.77858858 -648.05453308 555.60080976 C-648.05321332 541.16881865 -648.05193867 526.73682755 -648.05069422 512.30483644 C-648.04821758 483.58760829 -648.04547589 454.87038017 -648.04255217 426.15315207 C-648.04241293 424.78549574 -648.04227388 423.41783942 -648.04213501 422.05018309 C-648.0330999 333.08919521 -648.01769724 244.12820826 -648 149 C-643.54827252 146.83417213 -639.09571846 144.67005535 -634.64245605 142.50738525 C-633.13393805 141.77451515 -631.62563012 141.04121245 -630.11755371 140.30743408 C-620.62273502 135.6880128 -611.10039151 131.14628735 -601.5 126.75 C-588.83629475 120.92479766 -576.31972494 114.81470019 -563.80438232 108.67831421 C-553.29346197 103.5270006 -542.76704875 98.43849325 -532.125 93.5625 C-520.15030861 88.0747031 -508.324181 82.30328058 -496.5 76.5 C-483.61281373 70.1749989 -470.70390032 63.94092342 -457.65234375 57.9609375 C-447.18613536 53.14081091 -436.84559467 48.07260014 -426.5 43 C-413.95077525 36.84705916 -401.37779674 30.78628654 -388.66821289 24.9699707 C-381.63796819 21.73569374 -374.6698568 18.39290501 -367.72265625 14.984375 C-366.83163208 14.54758926 -365.94060791 14.11080353 -365.02258301 13.66078186 C-360.57883173 11.48051185 -356.13925564 9.29219471 -351.70458984 7.09350586 C-350.08308421 6.29525494 -348.46150567 5.49715212 -346.83984375 4.69921875 C-346.09122574 4.32492737 -345.34260773 3.95063599 -344.57130432 3.56500244 C-339.33975253 1 -339.33975253 1 -336 1 C-336 154.78 -336 308.56 -336 467 C-225.12 467 -114.24 467 0 467 C0 312.89 0 158.78 0 0 Z " fill="#F1BC53" transform="translate(1381,572)"/>
<path d="M0 0 C0.66 0.33 1.32 0.66 2 1 C1.67 61.72 1.34 122.44 1 185 C-41.55555556 206.27777778 -41.55555556 206.27777778 -56.1171875 213.16796875 C-64.55285504 217.19482879 -72.8868047 221.42940686 -81.23944092 225.62484741 C-90.83204852 230.44113307 -100.45598095 235.16934782 -110.16015625 239.7578125 C-118.83653012 243.88001573 -127.41662468 248.18864718 -136 252.5 C-146.33852156 257.69294712 -156.70043649 262.81210066 -167.16015625 267.7578125 C-175.83653023 271.88001579 -184.4166227 276.18865101 -193 280.5 C-202.41930306 285.23121246 -211.84428097 289.93335278 -221.375 294.4375 C-231.32638486 299.14125651 -241.16410145 304.06086897 -251 309 C-261.70587107 314.37599079 -272.42992885 319.68957008 -283.26171875 324.80859375 C-292.65893444 329.27058106 -301.94290439 333.95528782 -311.23834229 338.6242981 C-320.83131653 343.44076675 -330.45561052 348.16917267 -340.16015625 352.7578125 C-348.83653023 356.88001579 -357.4166227 361.18865101 -366 365.5 C-375.41930306 370.23121246 -384.84428097 374.93335278 -394.375 379.4375 C-404.32638486 384.14125651 -414.16410145 389.06086897 -424 394 C-434.70587107 399.37599079 -445.42992885 404.68957008 -456.26171875 409.80859375 C-464.90486295 413.91253272 -473.45044453 418.205657 -482 422.5 C-491.4193052 427.23120825 -500.84428085 431.93335273 -510.375 436.4375 C-520.32638486 441.14125651 -530.16410145 446.06086897 -540 451 C-550.70587107 456.37599079 -561.42992885 461.68957008 -572.26171875 466.80859375 C-581.65893444 471.27058106 -590.94290439 475.95528782 -600.23834229 480.6242981 C-609.83131653 485.44076675 -619.45561052 490.16917267 -629.16015625 494.7578125 C-637.83653012 498.88001573 -646.41662468 503.18864718 -655 507.5 C-665.33852156 512.69294712 -675.70043649 517.81210066 -686.16015625 522.7578125 C-694.83653023 526.88001579 -703.4166227 531.18865101 -712 535.5 C-721.41930306 540.23121246 -730.84428097 544.93335278 -740.375 549.4375 C-750.32638486 554.14125651 -760.16410145 559.06086897 -770 564 C-780.70587107 569.37599079 -791.42992885 574.68957008 -802.26171875 579.80859375 C-811.65893444 584.27058106 -820.94290439 588.95528782 -830.23834229 593.6242981 C-839.83131653 598.44076675 -849.45561052 603.16917267 -859.16015625 607.7578125 C-867.83653012 611.88001573 -876.41662468 616.18864718 -885 620.5 C-895.3229081 625.68510462 -905.66637753 630.80304526 -916.11401367 635.73364258 C-922.07941787 638.56399876 -927.99508326 641.48454328 -933.89453125 644.44921875 C-934.67065765 644.83904938 -935.44678406 645.22888 -936.24642944 645.63052368 C-940.13625316 647.58592736 -944.02297388 649.54725182 -947.90625 651.515625 C-949.32938385 652.23315868 -950.75255898 652.95061047 -952.17578125 653.66796875 C-952.83608841 654.00487228 -953.49639557 654.34177582 -954.17671204 654.68888855 C-958.7736621 657 -958.7736621 657 -961 657 C-961 1008.12 -961 1359.24 -961 1721 C-959.02 1721.66 -957.04 1722.32 -955 1723 C-953.27355059 1723.76927507 -951.5620363 1724.57285219 -949.86621094 1725.4074707 C-948.88948425 1725.8858992 -947.91275757 1726.3643277 -946.90643311 1726.85725403 C-945.85965393 1727.37486801 -944.81287476 1727.89248199 -943.734375 1728.42578125 C-942.62813782 1728.96921677 -941.52190063 1729.51265228 -940.38214111 1730.07255554 C-936.83633443 1731.81565291 -933.29319023 1733.56409141 -929.75 1735.3125 C-927.44417242 1736.44629308 -925.13818424 1737.57975959 -922.83203125 1738.71289062 C-910.12857908 1744.96077164 -897.44858239 1751.25411236 -884.79998779 1757.61238098 C-878.23710532 1760.90568429 -871.63797324 1764.1109143 -865 1767.25 C-855.26596374 1771.86876343 -845.6273817 1776.66417239 -836 1781.5 C-826.53911623 1786.25213879 -817.07191285 1790.97407351 -807.5 1795.5 C-797.17346082 1800.38273952 -786.96893996 1805.49727257 -776.76220703 1810.62402344 C-768.04653019 1815.00001554 -759.3171818 1819.33093606 -750.5 1823.5 C-740.17346082 1828.38273952 -729.96893996 1833.49727257 -719.76220703 1838.62402344 C-711.04653019 1843.00001554 -702.3171818 1847.33093606 -693.5 1851.5 C-683.92808658 1856.02592676 -674.46089453 1860.74788243 -665 1865.5 C-655.58069694 1870.23121246 -646.15571903 1874.93335278 -636.625 1879.4375 C-625.8708485 1884.52070307 -615.24858087 1889.85794612 -604.6192627 1895.19549561 C-594.70636305 1900.17136145 -584.76691906 1905.06913381 -574.73828125 1909.80859375 C-565.34106556 1914.27058106 -556.05709561 1918.95528782 -546.76165771 1923.6242981 C-538.0461641 1928.0001987 -529.31699666 1932.33102361 -520.5 1936.5 C-510.92808658 1941.02592676 -501.46089453 1945.74788243 -492 1950.5 C-482.58069694 1955.23121246 -473.15571903 1959.93335278 -463.625 1964.4375 C-452.8708485 1969.52070307 -442.24858087 1974.85794612 -431.6192627 1980.19549561 C-421.70636305 1985.17136145 -411.76691906 1990.06913381 -401.73828125 1994.80859375 C-392.34038728 1999.27090312 -383.05575992 2003.95597326 -373.75964355 2008.62530518 C-365.08640306 2012.97997192 -356.40006419 2017.29046966 -347.625 2021.4375 C-336.8708485 2026.52070307 -326.24858087 2031.85794612 -315.6192627 2037.19549561 C-305.70636305 2042.17136145 -295.76691906 2047.06913381 -285.73828125 2051.80859375 C-276.34106556 2056.27058106 -267.05709561 2060.95528782 -257.76165771 2065.6242981 C-249.0461641 2070.0001987 -240.31699666 2074.33102361 -231.5 2078.5 C-221.92808658 2083.02592676 -212.46089453 2087.74788243 -203 2092.5 C-193.58069694 2097.23121246 -184.15571903 2101.93335278 -174.625 2106.4375 C-163.8708485 2111.52070307 -153.24858087 2116.85794612 -142.6192627 2122.19549561 C-132.70636305 2127.17136145 -122.76691906 2132.06913381 -112.73828125 2136.80859375 C-103.34038728 2141.27090312 -94.05575992 2145.95597326 -84.75964355 2150.62530518 C-76.08639913 2154.97997389 -67.40000448 2159.29033642 -58.625 2163.4375 C-44.06226755 2170.32335365 -29.69494187 2177.60911519 -15.30200195 2184.84106445 C-9.87095564 2187.56660458 -4.43505901 2190.2824705 1 2193 C1.33 2253.72 1.66 2314.44 2 2377 C-2.16755224 2376.16648955 -4.35337317 2375.47640558 -7.9296875 2373.515625 C-8.87763184 2372.99943604 -9.82557617 2372.48324707 -10.80224609 2371.95141602 C-11.81625488 2371.38994873 -12.83026367 2370.82848145 -13.875 2370.25 C-14.93928223 2369.66726318 -16.00356445 2369.08452637 -17.10009766 2368.48413086 C-25.17518185 2364.04826088 -33.19257653 2359.51230193 -41.19946289 2354.95483398 C-49.61903866 2350.17755106 -58.1339415 2345.58744133 -66.66625977 2341.01538086 C-74.1801264 2336.9873113 -81.65042145 2332.89089862 -89.09375 2328.734375 C-95.32052886 2325.25810741 -101.56743465 2321.81826061 -107.8125 2318.375 C-109.06356369 2317.68506902 -110.3146216 2316.99512755 -111.56567383 2316.30517578 C-114.10964261 2314.90223871 -116.65367981 2313.49942579 -119.19775391 2312.09667969 C-124.09913431 2309.39405668 -128.9997872 2306.69011553 -133.90039062 2303.98608398 C-136.30392664 2302.65987568 -138.70757876 2301.3338782 -141.11132812 2300.00805664 C-146.59736162 2296.98200562 -152.08281015 2293.95491482 -157.56565857 2290.9230957 C-170.575617 2283.72917193 -183.60329528 2276.5722126 -196.68359375 2269.5065918 C-205.49603114 2264.74233077 -214.25292481 2259.88290543 -223 2255 C-237.1520971 2247.10558606 -251.32351731 2239.25428015 -265.58374023 2231.55664062 C-272.01610417 2228.08217048 -278.42271429 2224.56593819 -284.80761719 2221.00512695 C-291.79762233 2217.1073288 -298.80407089 2213.23953609 -305.8125 2209.375 C-307.06339648 2208.68514232 -308.31429165 2207.99528228 -309.56518555 2207.30541992 C-312.10931979 2205.90240637 -314.65352147 2204.49951517 -317.19775391 2203.09667969 C-322.09913431 2200.39405668 -326.9997872 2197.69011553 -331.90039062 2194.98608398 C-334.30392663 2193.65987568 -336.70757876 2192.3338782 -339.11132812 2191.00805664 C-344.59738757 2187.9819913 -350.08286499 2184.95489149 -355.56573486 2181.92304993 C-358.64764025 2180.21890036 -361.72997186 2178.51552283 -364.8125 2176.8125 C-365.71878143 2176.31174454 -365.71878143 2176.31174454 -366.64337158 2175.8008728 C-374.86366702 2171.26067509 -383.10844995 2166.76803725 -391.375 2162.3125 C-399.09412818 2158.15158186 -406.75436253 2153.90107564 -414.375 2149.5625 C-423.7288604 2144.23726247 -433.17503388 2139.10156268 -442.66186523 2134.01757812 C-450.9787517 2129.55870795 -459.24279942 2125.01494029 -467.47900391 2120.40917969 C-482.46437683 2112.03269581 -497.47650169 2103.71149747 -512.58374023 2095.55664062 C-519.01610417 2092.08217048 -525.42271429 2088.56593819 -531.80761719 2085.00512695 C-538.79762233 2081.1073288 -545.80407089 2077.23953609 -552.8125 2073.375 C-554.06339648 2072.68514232 -555.31429165 2071.99528228 -556.56518555 2071.30541992 C-559.10931979 2069.90240637 -561.65352147 2068.49951517 -564.19775391 2067.09667969 C-569.09913431 2064.39405668 -573.9997872 2061.69011553 -578.90039062 2058.98608398 C-581.30392663 2057.65987568 -583.70757876 2056.3338782 -586.11132812 2055.00805664 C-591.59738757 2051.9819913 -597.08286499 2048.95489149 -602.56573486 2045.92304993 C-605.64764025 2044.21890036 -608.72997186 2042.51552283 -611.8125 2040.8125 C-612.71878143 2040.31174454 -612.71878143 2040.31174454 -613.64337158 2039.8008728 C-621.86366702 2035.26067509 -630.10844995 2030.76803725 -638.375 2026.3125 C-646.09412818 2022.15158186 -653.75436253 2017.90107564 -661.375 2013.5625 C-670.73028083 2008.23645381 -680.17779904 2003.09979226 -689.66625977 1998.01538086 C-697.1801264 1993.9873113 -704.65042145 1989.89089862 -712.09375 1985.734375 C-718.32052886 1982.25810741 -724.56743465 1978.81826061 -730.8125 1975.375 C-732.06356369 1974.68506902 -733.3146216 1973.99512755 -734.56567383 1973.30517578 C-737.10964261 1971.90223871 -739.65367981 1970.49942579 -742.19775391 1969.09667969 C-747.09913431 1966.39405668 -751.9997872 1963.69011553 -756.90039062 1960.98608398 C-759.30392663 1959.65987568 -761.70757876 1958.3338782 -764.11132812 1957.00805664 C-769.59738757 1953.9819913 -775.08286499 1950.95489149 -780.56573486 1947.92304993 C-783.64764025 1946.21890036 -786.72997186 1944.51552283 -789.8125 1942.8125 C-790.71878143 1942.31174454 -790.71878143 1942.31174454 -791.64337158 1941.8008728 C-799.86366702 1937.26067509 -808.10844995 1932.76803725 -816.375 1928.3125 C-824.09412818 1924.15158186 -831.75436253 1919.90107564 -839.375 1915.5625 C-848.73028083 1910.23645381 -858.17779904 1905.09979226 -867.66625977 1900.01538086 C-875.1801264 1895.9873113 -882.65042145 1891.89089862 -890.09375 1887.734375 C-896.32052886 1884.25810741 -902.56743465 1880.81826061 -908.8125 1877.375 C-910.06356369 1876.68506902 -911.3146216 1875.99512755 -912.56567383 1875.30517578 C-915.10964261 1873.90223871 -917.65367981 1872.49942579 -920.19775391 1871.09667969 C-925.09913431 1868.39405668 -929.9997872 1865.69011553 -934.90039062 1862.98608398 C-937.30392663 1861.65987568 -939.70757876 1860.3338782 -942.11132812 1859.00805664 C-947.59736162 1855.98200562 -953.08281015 1852.95491482 -958.56565857 1849.9230957 C-971.575617 1842.72917193 -984.60329528 1835.5722126 -997.68359375 1828.5065918 C-1006.49603114 1823.74233077 -1015.25292481 1818.88290543 -1024 1814 C-1028.37373123 1811.56021708 -1032.7487906 1809.12283512 -1037.125 1806.6875 C-1038.83296753 1805.73701782 -1038.83296753 1805.73701782 -1040.57543945 1804.76733398 C-1049.5389641 1799.7892829 -1058.54228403 1794.88775001 -1067.57470703 1790.03588867 C-1068.50911621 1789.5329126 -1069.44352539 1789.02993652 -1070.40625 1788.51171875 C-1071.22416016 1788.07303467 -1072.04207031 1787.63435059 -1072.88476562 1787.18237305 C-1074.63762933 1786.20255784 -1076.32913839 1785.11390774 -1078 1784 C-1078.29893193 1781.298638 -1078.39870835 1778.82565961 -1078.37259549 1776.12128818 C-1078.37642975 1775.29236349 -1078.38026401 1774.46343881 -1078.38421445 1773.60939519 C-1078.39349667 1770.79583828 -1078.38115816 1767.98277438 -1078.36914349 1765.16923332 C-1078.37135999 1763.13744125 -1078.37489316 1761.10565025 -1078.37963298 1759.07386249 C-1078.3888975 1753.44178782 -1078.37926753 1747.8098739 -1078.36679858 1742.17781112 C-1078.35654468 1736.0691272 -1078.36359902 1729.9604605 -1078.36853105 1723.85177338 C-1078.37476952 1713.12944353 -1078.36988939 1702.40716913 -1078.35761642 1691.68484879 C-1078.34450021 1680.17524943 -1078.33789657 1668.66567395 -1078.33932304 1657.15606689 C-1078.33940912 1656.43017991 -1078.3394952 1655.70429293 -1078.33958388 1654.95640937 C-1078.34005298 1651.2553677 -1078.34062883 1647.55432606 -1078.34124239 1643.85328442 C-1078.34546934 1617.03731091 -1078.33515696 1590.22135867 -1078.31719017 1563.40539169 C-1078.29943471 1536.84147919 -1078.2878673 1510.27757578 -1078.28463173 1483.71365738 C-1078.28452849 1482.889286 -1078.28442526 1482.06491463 -1078.28431889 1481.2155623 C-1078.28337932 1473.68641804 -1078.28251625 1466.15727377 -1078.28174497 1458.62812948 C-1078.27982656 1439.90986777 -1078.27694845 1421.19160628 -1078.27341938 1402.4733448 C-1078.27325943 1401.62087011 -1078.27309948 1400.76839542 -1078.27293468 1399.89008817 C-1078.26506637 1358.40214519 -1078.24614216 1316.91420823 -1078.22631836 1275.42626953 C-1078.2194435 1261.02547205 -1078.21261747 1246.62467455 -1078.20599365 1232.22387695 C-1078.2055828 1231.33076206 -1078.20517196 1230.43764717 -1078.20474866 1229.5174682 C-1078.18572336 1188.01413086 -1078.17454189 1146.51079249 -1078.16538927 1105.00745194 C-1078.16479507 1102.31367771 -1078.1641975 1099.61990347 -1078.16359923 1096.92612924 C-1078.15963995 1079.0746426 -1078.15581599 1061.22315593 -1078.15208265 1043.37166923 C-1078.14465276 1007.85034955 -1078.1364277 972.32903006 -1078.12765651 936.80771067 C-1078.12723879 935.11601737 -1078.12682163 933.42432406 -1078.12640502 931.73263076 C-1078.10764104 855.55726519 -1078.07962574 779.38190403 -1078.04760742 703.20654297 C-1078.04730762 702.49312827 -1078.04700781 701.77971357 -1078.04669892 701.04468024 C-1078.03169693 665.36311991 -1078.01616731 629.68155982 -1078 594 C-1075.47696323 592.57922976 -1072.95374306 591.15878689 -1070.43041992 589.73852539 C-1069.72499809 589.34124489 -1069.01957626 588.94396439 -1068.29277802 588.53464508 C-1061.65318302 584.79811836 -1054.98693193 581.11146452 -1048.3125 577.4375 C-1047.06376135 576.74942289 -1045.81506454 576.06126982 -1044.56640625 575.37304688 C-1041.98925435 573.95267289 -1039.41192842 572.53261548 -1036.83447266 571.11279297 C-1031.32086347 568.07522291 -1025.80949882 565.03358617 -1020.29803467 561.99212646 C-1018.49517567 560.99733801 -1016.69218813 560.00278292 -1014.88916016 559.00830078 C-1009.4029533 555.98218756 -1003.91734898 552.95500282 -998.43434143 549.9230957 C-985.42295337 542.72838141 -972.39407171 535.57019715 -959.31201172 528.50439453 C-952.91488755 525.0462281 -946.54299322 521.54675733 -940.19189453 518.00488281 C-933.20208593 514.10710548 -926.1957698 510.23944824 -919.1875 506.375 C-917.93660352 505.68514232 -916.68570835 504.99528228 -915.43481445 504.30541992 C-912.89068021 502.90240637 -910.34647853 501.49951517 -907.80224609 500.09667969 C-902.90086569 497.39405668 -898.0002128 494.69011553 -893.09960938 491.98608398 C-890.69607337 490.65987568 -888.29242124 489.3338782 -885.88867188 488.00805664 C-880.40261243 484.9819913 -874.91713501 481.95489149 -869.43426514 478.92304993 C-866.35235975 477.21890036 -863.27002814 475.51552283 -860.1875 473.8125 C-859.58331238 473.47866302 -858.97912476 473.14482605 -858.35662842 472.8008728 C-850.13633298 468.26067509 -841.89155005 463.76803725 -833.625 459.3125 C-825.90587182 455.15158186 -818.24563747 450.90107564 -810.625 446.5625 C-801.26971917 441.23645381 -791.82220096 436.09979226 -782.33374023 431.01538086 C-774.8198736 426.9873113 -767.34957855 422.89089862 -759.90625 418.734375 C-753.67947114 415.25810741 -747.43256535 411.81826061 -741.1875 408.375 C-739.93643631 407.68506902 -738.6853784 406.99512755 -737.43432617 406.30517578 C-734.89035739 404.90223871 -732.34632019 403.49942579 -729.80224609 402.09667969 C-724.90086569 399.39405668 -720.0002128 396.69011553 -715.09960938 393.98608398 C-712.69607337 392.65987568 -710.29242124 391.3338782 -707.88867188 390.00805664 C-702.40261243 386.9819913 -696.91713501 383.95489149 -691.43426514 380.92304993 C-688.35235975 379.21890036 -685.27002814 377.51552283 -682.1875 375.8125 C-681.58331238 375.47866302 -680.97912476 375.14482605 -680.35662842 374.8008728 C-672.13633298 370.26067509 -663.89155005 365.76803725 -655.625 361.3125 C-647.90587182 357.15158186 -640.24563747 352.90107564 -632.625 348.5625 C-623.26971917 343.23645381 -613.82220096 338.09979226 -604.33374023 333.01538086 C-596.8198736 328.9873113 -589.34957855 324.89089862 -581.90625 320.734375 C-575.67947114 317.25810741 -569.43256535 313.81826061 -563.1875 310.375 C-561.93643631 309.68506902 -560.6853784 308.99512755 -559.43432617 308.30517578 C-556.89035739 306.90223871 -554.34632019 305.49942579 -551.80224609 304.09667969 C-546.90086569 301.39405668 -542.0002128 298.69011553 -537.09960938 295.98608398 C-534.69607337 294.65987568 -532.29242124 293.3338782 -529.88867188 292.00805664 C-524.40261243 288.9819913 -518.91713501 285.95489149 -513.43426514 282.92304993 C-510.35235975 281.21890036 -507.27002814 279.51552283 -504.1875 277.8125 C-503.58331238 277.47866302 -502.97912476 277.14482605 -502.35662842 276.8008728 C-494.13633298 272.26067509 -485.89155005 267.76803725 -477.625 263.3125 C-469.90587182 259.15158186 -462.24563747 254.90107564 -454.625 250.5625 C-445.26971917 245.23645381 -435.82220096 240.09979226 -426.33374023 235.01538086 C-418.8198736 230.9873113 -411.34957855 226.89089862 -403.90625 222.734375 C-397.67947114 219.25810741 -391.43256535 215.81826061 -385.1875 212.375 C-383.93643631 211.68506902 -382.6853784 210.99512755 -381.43432617 210.30517578 C-378.89035739 208.90223871 -376.34632019 207.49942579 -373.80224609 206.09667969 C-368.90086569 203.39405668 -364.0002128 200.69011553 -359.09960938 197.98608398 C-356.69607337 196.65987568 -354.29242124 195.3338782 -351.88867188 194.00805664 C-346.40263838 190.98200562 -340.91718985 187.95491482 -335.43434143 184.9230957 C-322.424383 177.72917193 -309.39670472 170.5722126 -296.31640625 163.5065918 C-288.36148197 159.2059274 -280.44917639 154.83307437 -272.55322266 150.42529297 C-257.55398158 142.05222265 -242.53676185 133.71935853 -227.4206543 125.55883789 C-219.43003733 121.24229691 -211.48317778 116.85205507 -203.55322266 112.42529297 C-188.55255861 104.0514283 -173.534172 95.71725911 -158.41625977 87.55664062 C-151.98389583 84.08217048 -145.57728571 80.56593819 -139.19238281 77.00512695 C-132.20237767 73.1073288 -125.19592911 69.23953609 -118.1875 65.375 C-116.93660352 64.68514232 -115.68570835 63.99528228 -114.43481445 63.30541992 C-111.89068021 61.90240637 -109.34647853 60.49951517 -106.80224609 59.09667969 C-101.90086569 56.39405668 -97.0002128 53.69011553 -92.09960938 50.98608398 C-89.69607337 49.65987568 -87.29242124 48.3338782 -84.88867188 47.00805664 C-79.40262238 43.98199679 -73.91715357 40.9549049 -68.43429565 37.92306519 C-65.35237919 36.21891217 -62.2700176 34.51556537 -59.1875 32.8125 C-58.58397705 32.47899536 -57.9804541 32.14549072 -57.35864258 31.80187988 C-48.1306742 26.70449641 -38.86904038 21.67194028 -29.58227539 16.68237305 C-24.65085114 14.021056 -19.76105909 11.304719 -14.9140625 8.4921875 C-13.45323242 7.64479004 -13.45323242 7.64479004 -11.96289062 6.78027344 C-10.11078084 5.69998229 -8.26289571 4.61240586 -6.41992188 3.51660156 C-5.60330078 3.03932617 -4.78667969 2.56205078 -3.9453125 2.0703125 C-3.22875488 1.64508301 -2.51219727 1.21985352 -1.77392578 0.78173828 C-1.18853027 0.52376465 -0.60313477 0.26579102 0 0 Z " fill="#A88539" transform="translate(1211,27)"/>
</svg>
